<svg width="600" height="280" viewBox="0 0 600 280" fill="none" xmlns="http://www.w3.org/2000/svg">
<g filter="url(#filter0_d_1516_305)">
<path d="M111.312 167.655L90.4731 108.011L70.5509 109.661L54.6621 168.083L72.3843 167.166L74.7065 154.883L89.6175 154.333L93.2842 168.51L111.312 167.655ZM86.9286 144.066H76.7842L81.1842 125.794L86.9286 144.066Z" fill="#F8D331"/>
<path d="M116.203 167.533C119.442 168.144 123.108 168.45 126.897 168.45C144.069 168.45 164.48 162.033 164.48 148.65C164.48 140.461 158.003 136.428 148.592 135.572C154.764 131.416 158.369 127.505 158.369 122.25C158.369 114.061 147.981 109.783 134.353 109.783C126.897 109.783 119.258 111.005 112.842 113.022L116.203 167.533ZM131.481 145.472C133.314 144.616 135.942 144.128 138.508 144.128C142.664 144.128 145.719 145.35 145.719 148.589C145.719 152.927 139.547 155.555 132.581 155.739L131.481 145.472ZM128.853 122.555C130.503 121.7 132.397 121.333 134.108 121.333C138.386 121.333 141.564 123.105 141.564 126.589C141.564 130.622 136.247 133.739 129.892 133.861L128.853 122.555Z" fill="#F8D331"/>
<path d="M225.955 139.116C225.955 123.41 215.444 108.805 196.499 108.805C177.922 108.805 167.044 122.799 167.044 139.666C167.044 156.043 180.061 168.327 195.522 168.327C211.594 168.266 225.955 157.082 225.955 139.116ZM196.744 153.721C188.249 153.721 184.277 147.366 184.277 140.888C184.277 132.821 189.166 127.321 196.683 127.321C204.138 127.321 208.049 133.738 208.049 139.788C208.049 148.038 203.588 153.721 196.744 153.721Z" fill="#F8D331"/>
<path d="M268.245 148.404C265.373 149.871 262.195 150.665 259.262 150.665C252.662 150.665 247.04 146.693 247.04 137.832C247.04 131.721 251.44 125.732 261.217 125.732C263.051 125.732 265.067 126.098 266.962 127.076L271.789 113.204C267.634 111.554 263.662 110.882 260.117 110.882C239.462 110.882 229.317 126.526 229.317 140.765C229.317 156.165 241.54 168.876 259.323 168.876C263.784 168.876 268.734 168.02 273.867 166.248L268.245 148.404Z" fill="#FF5F4B"/>
<path d="M331.556 167.778L310.717 108.072L290.734 109.722L274.845 168.144L292.567 167.228L294.889 154.944L309.8 154.394L313.467 168.572L331.556 167.778ZM307.172 144.128H297.028L301.428 125.856L307.172 144.128Z" fill="#FF5F4B"/>
<path d="M330.761 159.527C336.2 165.883 346.711 169.366 357.161 169.366C371.399 169.366 385.333 162.888 385.333 148.161C385.333 122.188 352.211 133.372 352.211 125.488C352.211 122.066 356.183 120.905 360.827 120.905C366.022 120.905 371.949 122.311 374.577 123.472L375.066 109.294C371.033 108.622 366.022 108.011 360.827 108.011C347.688 108.011 333.755 111.739 333.755 126.1C333.755 144.799 365.716 137.344 365.716 147.061C365.716 151.338 361.438 153.844 355.511 153.844C350.622 153.844 344.755 152.133 339.194 148.283L330.761 159.527Z" fill="#FF5F4B"/>
<path d="M418.946 169.61L419.924 154.516L414.363 154.21L416.44 124.205H424.079L424.446 109.232L391.324 110.638L391.813 124.205H397.985L396.824 152.927L390.346 152.56L389.246 166.616L418.946 169.61Z" fill="#FF5F4B"/>
<path d="M474.737 168.388L479.932 109.722L460.498 110.822L461.659 140.277L446.321 111.127L428.293 114.549L429.699 166.921L446.26 168.633L444.854 137.344L465.998 170.16L474.737 168.388Z" fill="#FF5F4B"/>
<path d="M543.001 139.177C543.001 123.472 532.49 108.866 513.545 108.866C494.968 108.866 484.09 122.861 484.09 139.727C484.09 156.105 497.106 168.388 512.567 168.388C528.64 168.388 543.001 157.144 543.001 139.177ZM513.729 153.844C505.234 153.844 501.262 147.488 501.262 141.011C501.262 132.944 506.151 127.444 513.667 127.444C521.123 127.444 525.034 133.861 525.034 139.911C525.034 148.099 520.634 153.844 513.729 153.844Z" fill="#FF5F4B"/>
</g>
<defs>
<filter id="filter0_d_1516_305" x="54.6621" y="108.011" width="492.538" height="66.3484" filterUnits="userSpaceOnUse" color-interpolation-filters="sRGB">
<feFlood flood-opacity="0" result="BackgroundImageFix"/>
<feColorMatrix in="SourceAlpha" type="matrix" values="0 0 0 0 0 0 0 0 0 0 0 0 0 0 0 0 0 0 127 0" result="hardAlpha"/>
<feOffset dx="4.19894" dy="4.19894"/>
<feComposite in2="hardAlpha" operator="out"/>
<feColorMatrix type="matrix" values="0 0 0 0 0 0 0 0 0 0 0 0 0 0 0 0 0 0 0.25 0"/>
<feBlend mode="normal" in2="BackgroundImageFix" result="effect1_dropShadow_1516_305"/>
<feBlend mode="normal" in="SourceGraphic" in2="effect1_dropShadow_1516_305" result="shape"/>
</filter>
</defs>
</svg>
