<svg width="600" height="280" viewBox="0 0 600 280" fill="none" xmlns="http://www.w3.org/2000/svg">
<g clip-path="url(#clip0_1827_1023)">
<g filter="url(#filter0_dd_1827_1023)">
<path d="M43.3066 158.951L44.1983 158.266L44.2709 156.835C45.4114 154.057 46.5727 151.402 47.7547 148.852C48.9782 146.301 50.2535 143.688 51.5806 141.003C51.985 140.142 52.3997 139.271 52.8041 138.411C53.2603 137.55 53.6958 136.658 54.1002 135.746C54.0587 135.559 54.0276 135.383 54.0276 135.196C54.0276 134.968 54.0691 134.719 54.1624 134.45C54.7948 133.537 55.3029 132.718 55.6658 131.993C56.0702 131.267 56.4642 130.51 56.8271 129.743C57.2314 128.83 57.6669 127.928 58.1231 127.016C58.6208 126.103 59.2325 125.222 59.9687 124.351L60.4456 123.667L61.1922 123.739C61.3788 123.646 61.5551 123.584 61.7417 123.532C61.9698 123.439 62.2394 123.397 62.5608 123.397L63.7843 123.605C65.2877 122.92 66.6045 121.946 67.745 120.67C68.927 119.354 70.109 117.777 71.291 115.963L72.1101 114.802L73.1988 115.486C73.4269 115.621 73.7898 115.756 74.2875 115.89C74.7852 116.025 75.3139 116.191 75.8531 116.367C76.807 116.596 77.7402 116.865 78.6526 117.186C79.565 117.456 80.2701 117.85 80.7677 118.348L81.1099 118.96C81.2032 119.457 81.2654 119.913 81.3173 120.328C81.4106 120.732 81.5039 121.147 81.5868 121.552C81.7735 122.506 81.929 123.459 82.0638 124.413C82.1986 125.326 82.2919 126.342 82.3334 127.482C82.5615 128.395 82.7688 129.328 82.9451 130.282C83.1732 131.194 83.3806 132.096 83.5568 133.009C83.7849 134.325 84.0338 135.601 84.3034 136.835C84.5729 138.017 84.9358 139.157 85.3921 140.246C85.8483 140.246 86.1178 140.267 86.2112 140.318C86.7607 140.09 87.3932 139.956 88.1189 139.914L89.0106 139.842L89.2802 140.661C89.3735 140.795 89.4876 140.93 89.6224 141.065C89.7572 141.2 89.9231 141.335 90.0993 141.469C90.8251 141.511 91.3539 141.677 91.6649 141.946C92.0278 142.174 92.3285 142.403 92.5566 142.631C92.6499 142.724 92.764 142.838 92.8988 142.973C93.0336 143.066 93.1476 143.128 93.2409 143.18L94.4644 143.657L93.7801 144.953C93.2824 145.907 92.5048 146.84 91.4576 147.753C90.4518 148.665 89.3217 149.412 88.0464 150.003C88.1397 150.324 88.1812 150.614 88.1812 150.894C88.2226 151.164 88.2952 151.485 88.3885 151.848C88.5752 152.761 88.7099 153.714 88.7929 154.71C88.9277 155.664 88.9277 156.669 88.7929 157.717C88.3367 158.899 87.7872 159.967 87.1547 160.921C86.5637 161.833 85.8379 162.673 84.9669 163.44C84.1478 164.166 83.2147 164.778 82.1675 165.286C81.1203 165.742 80.0316 165.991 78.8911 166.032C78.2586 165.897 77.7816 165.731 77.4602 165.555C77.1906 165.369 76.9418 165.192 76.7137 165.006C76.3508 164.736 76.0501 164.549 75.822 164.456L74.9303 164.052L75.1999 163.025C75.3347 162.662 75.314 162.341 75.1273 162.071C74.9925 161.802 74.6711 161.439 74.1734 160.983C73.9868 160.848 73.8313 160.713 73.6965 160.578C73.5617 160.392 73.3958 160.215 73.2195 160.029L71.8509 158.463L74.1008 157.851C75.4695 157.489 76.3715 157.032 76.8277 156.483C77.284 155.892 77.4602 154.865 77.3773 153.414C76.2367 153.186 75.3036 153.165 74.5778 153.341C73.852 153.476 73.1262 153.642 72.3901 153.818C71.3428 154.088 70.3164 154.337 69.321 154.565C68.3153 154.751 67.2266 154.834 66.0446 154.834C65.267 154.834 64.4478 154.762 63.5873 154.627L62.8407 154.554L62.6334 153.808C62.6334 153.714 62.5608 153.621 62.426 153.538C62.3327 153.403 62.2394 153.289 62.1564 153.196C61.9283 152.926 61.6587 152.564 61.3373 152.107C61.0159 151.651 60.9537 151.081 61.13 150.397C60.8085 149.899 60.6323 149.37 60.5804 148.831C60.3938 149.194 60.2383 149.557 60.1035 149.92C60.0102 150.241 59.9168 150.552 59.8339 150.874L59.5643 151.765L58.6726 151.9C58.5793 151.993 58.486 152.128 58.4031 152.304C58.3616 152.491 58.3616 152.626 58.4031 152.709L58.6726 153.455L57.9883 154.067C57.895 154.202 57.781 154.316 57.6462 154.409C57.5114 154.502 57.3973 154.596 57.304 154.679C57.2107 155.176 57.0759 155.653 56.8996 156.11C56.7648 156.566 56.599 157.022 56.4227 157.478C56.1946 158.204 55.9665 158.909 55.7384 159.593C55.5517 160.278 55.4688 160.962 55.4688 161.636L55.1992 162.528C54.9711 162.891 54.6808 163.16 54.3075 163.347C53.9861 163.533 53.6751 163.689 53.3536 163.824C52.8974 164.01 52.576 164.187 52.3997 164.373L52.1924 165.265L51.1659 165.4C50.5749 165.534 50.1394 165.628 49.8698 165.669C49.6417 165.711 49.3722 165.742 49.0507 165.742L48.1591 165.669C47.6095 165.12 47.1533 164.715 46.7904 164.446C46.469 164.124 46.0854 163.855 45.6292 163.627L45.2248 163.077C45.0382 162.714 44.9241 162.393 44.8826 162.123C44.8412 161.802 44.7686 161.491 44.6753 161.169C44.582 160.578 44.4472 160.164 44.2709 159.946L43.3066 158.951ZM65.07 141.21C64.4375 142.123 63.8154 143.076 63.2244 144.072C63.5458 144.03 63.8361 143.999 64.1161 143.999C64.4375 143.999 64.7485 143.979 65.07 143.927C66.6667 143.833 68.139 143.719 69.5076 143.585C70.8763 143.45 72.3486 143.222 73.9453 142.9C73.5824 141.221 73.1677 139.51 72.7218 137.778C72.3175 136.005 71.8613 134.232 71.3532 132.459L71.0111 133.144C69.8705 134.367 68.7818 135.694 67.7346 137.104C66.6874 138.514 65.8268 139.852 65.1425 141.127L65.07 141.21ZM105.123 158.339C104.625 160.153 104.169 161.543 103.755 162.497C103.392 163.409 102.821 164.363 102.044 165.358C101.453 165.265 101.038 165.337 100.82 165.566C100.592 165.794 100.343 166.001 100.074 166.177C99.6694 166.271 99.3687 166.271 99.182 166.177C98.9954 166.084 98.8399 165.97 98.7051 165.835C98.5703 165.742 98.3837 165.628 98.1556 165.493C97.9689 165.4 97.6786 165.358 97.2639 165.358C97.1706 164.995 97.0565 164.653 96.9217 164.332C96.8284 164.01 96.5381 163.896 96.0301 163.99C96.1234 163.627 96.1441 163.326 96.1026 163.098C96.0612 162.828 95.9886 162.6 95.8953 162.414C95.8538 162.185 95.8019 161.978 95.7605 161.802C95.719 161.574 95.7397 161.304 95.833 160.983C95.6049 160.983 95.4287 160.827 95.2835 160.506C95.1487 160.184 94.9828 159.873 94.8066 159.552C94.9414 158.733 95.0762 157.955 95.2109 157.229C95.3457 156.504 95.5116 155.819 95.6879 155.187C95.916 154.554 96.0923 153.911 96.2374 153.279C96.3722 152.647 96.31 151.983 96.0301 151.299C96.2167 151.433 96.3515 151.413 96.4344 151.226C96.5277 150.998 96.5899 150.728 96.6418 150.407C96.6833 150.044 96.7144 149.702 96.7144 149.38C96.7144 149.018 96.6936 148.717 96.6418 148.489C97.098 147.307 97.4609 146.104 97.7305 144.87C98.0519 143.595 98.3215 142.351 98.5496 141.117C98.8192 139.893 99.0991 138.68 99.3687 137.498C99.6383 136.316 100.001 135.228 100.457 134.222C100.955 134.128 101.505 134.201 102.096 134.429C102.728 134.616 103.122 134.865 103.257 135.176C104.439 134.263 105.486 133.175 106.398 131.899C107.311 130.583 108.244 129.307 109.198 128.073C110.152 126.85 111.199 125.751 112.34 124.797C113.522 123.843 115.004 123.273 116.777 123.086C117.69 123.77 118.685 124.475 119.784 125.201C120.925 125.886 121.858 126.798 122.584 127.928C122.946 128.115 123.247 128.312 123.475 128.54C123.745 128.727 124.066 128.924 124.429 129.152V129.971C124.979 130.468 125.404 131.059 125.725 131.744C126.088 132.376 126.41 133.081 126.679 133.859C126.949 134.585 127.229 135.342 127.498 136.109C127.768 136.835 128.089 137.54 128.452 138.224C128.359 138.452 128.317 138.66 128.317 138.836C128.317 138.971 128.338 139.136 128.39 139.313C128.483 139.499 128.545 139.676 128.597 139.862C128.639 140.049 128.639 140.298 128.597 140.609C128.462 142.61 127.799 144.227 126.617 145.451C125.476 146.674 124.097 147.701 122.459 148.52C120.821 149.297 119.069 149.951 117.202 150.5C115.336 151.05 113.656 151.641 112.153 152.273C112.153 152.46 112.226 152.543 112.36 152.543C112.547 152.543 112.609 152.657 112.568 152.885C113.656 153.569 114.527 154.108 115.16 154.523C115.792 154.928 116.383 155.27 116.933 155.55C117.524 155.819 118.136 156.068 118.778 156.296C119.463 156.483 120.396 156.701 121.578 156.981C122.76 157.25 123.672 157.478 124.305 157.665C124.989 157.8 125.601 157.934 126.15 158.069C126.7 158.163 127.239 158.256 127.789 158.339C128.38 158.38 129.199 158.453 130.246 158.546C130.65 158.951 130.992 159.459 131.272 160.05C131.594 160.599 131.791 161.169 131.884 161.76C131.977 162.31 131.998 162.849 131.957 163.399C131.915 163.896 131.749 164.311 131.48 164.622C131.521 164.757 131.614 164.829 131.749 164.829C131.936 164.788 132.112 164.788 132.299 164.829C132.029 165.016 131.801 165.234 131.614 165.514C131.428 165.783 131.252 166.063 131.065 166.333C130.878 166.602 130.681 166.831 130.453 167.017C130.225 167.245 129.904 167.38 129.499 167.422C128.089 167.971 126.316 167.992 124.18 167.494C122.044 167.038 119.338 166.177 116.062 164.902C114.424 164.27 113.086 163.72 112.039 163.264C111.033 162.766 110.152 162.289 109.374 161.833C108.648 161.335 107.964 160.806 107.332 160.267C106.71 159.77 105.984 159.106 105.123 158.339ZM114.88 134.927C114.382 135.653 113.812 136.316 113.169 136.907C112.578 137.498 111.987 138.11 111.396 138.753C110.847 139.344 110.349 140.028 109.893 140.795C109.436 141.521 109.115 142.392 108.939 143.388C110.535 143.201 112.194 142.776 113.916 142.091C115.647 141.366 117.285 140.681 118.83 140.049C118.644 138.639 118.146 137.498 117.327 136.638C116.56 135.777 115.74 135.207 114.88 134.927ZM149.946 164.684C148.671 165.089 147.281 165.503 145.788 165.908C144.285 166.312 142.781 166.519 141.288 166.519C139.018 166.519 137.213 165.949 135.897 164.809C135.669 164.311 135.461 163.969 135.285 163.782C135.15 163.596 135.015 163.419 134.881 163.233C134.787 163.005 134.725 162.714 134.673 162.341C134.124 161.709 133.699 160.972 133.377 160.153C133.056 159.293 132.828 158.422 132.693 157.561C132.599 156.649 132.579 155.736 132.62 154.834C132.714 153.922 132.869 153.061 133.097 152.242C133.19 152.056 133.232 151.879 133.232 151.693C133.273 151.506 133.325 151.309 133.367 151.081C133.553 150.355 133.73 149.65 133.916 148.966C134.144 148.281 134.435 147.69 134.808 147.193C134.621 146.788 134.621 146.332 134.808 145.824C134.995 145.326 135.192 144.87 135.42 144.455C136.052 142.724 136.581 141.272 136.985 140.09C137.442 138.867 137.898 137.654 138.354 136.472C139.132 134.429 139.857 132.397 140.542 130.396C141.226 128.395 141.838 126.238 142.387 123.916C142.75 123.688 143.02 123.532 143.206 123.439C143.476 123.345 143.704 123.283 143.891 123.231C144.71 123.636 145.664 124.05 146.752 124.455C147.841 124.818 148.753 125.004 149.479 125.004C149.842 125.232 150.07 125.409 150.164 125.554C150.257 125.647 150.35 125.74 150.433 125.823C150.931 126.414 151.366 127.026 151.729 127.669C152.092 128.26 152.206 129.058 152.071 130.054C151.802 130.458 151.594 130.665 151.46 130.665C151.232 131.578 150.983 132.345 150.713 132.988C150.485 133.62 150.236 134.263 149.967 134.896C149.645 135.58 149.355 136.264 149.075 136.938C148.805 137.623 148.577 138.463 148.391 139.458C148.204 139.686 148.069 139.893 147.986 140.07C147.945 140.256 147.872 140.453 147.779 140.681C147.686 140.909 147.571 141.158 147.437 141.428C147.343 141.656 147.188 141.863 146.96 142.04C146.825 143.222 146.597 144.176 146.275 144.901C146.006 145.627 145.705 146.353 145.384 147.089C144.834 148.406 144.337 149.723 143.88 151.05C143.476 152.367 143.217 153.87 143.134 155.55C143.362 155.456 143.569 155.415 143.746 155.415C143.974 155.415 144.181 155.415 144.357 155.415C144.762 155.415 145.249 155.487 145.788 155.622C147.157 154.896 148.629 154.461 150.226 154.326C151.864 154.191 153.481 154.098 155.068 154.057C155.7 154.057 156.343 154.057 156.976 154.057C157.608 154.057 158.199 154.015 158.749 153.922C159.153 154.15 159.412 154.285 159.495 154.326C159.63 154.326 159.817 154.326 160.045 154.326C160.366 154.326 160.636 154.347 160.864 154.399C161.413 154.896 161.932 155.259 162.429 155.487C162.927 155.716 163.456 155.923 163.995 156.099C164.493 156.286 164.97 156.483 165.426 156.711C165.924 156.898 166.401 157.167 166.857 157.53L167.334 160.464C167.655 160.869 167.79 161.149 167.738 161.283C167.738 161.646 167.645 161.916 167.468 162.103L167.603 162.849C166.919 162.984 166.442 163.15 166.172 163.326C165.944 163.513 165.716 163.71 165.488 163.938C165.125 163.979 164.856 164.01 164.669 164.01C164.534 164.01 164.399 164.01 164.265 164.01C163.632 164.01 162.855 164.124 161.942 164.352C160.719 163.948 159.443 163.741 158.116 163.741C157.618 163.741 157.09 163.761 156.551 163.813C156.001 163.855 155.462 163.907 154.912 163.948C154.363 164.041 153.803 164.104 153.202 164.155C152.652 164.197 152.092 164.228 151.491 164.228L149.946 164.684ZM207.262 127.016C207.304 127.337 207.304 127.586 207.262 127.762C207.262 127.897 207.242 128.032 207.19 128.167C207.19 128.301 207.19 128.467 207.19 128.644C207.19 128.778 207.231 129.007 207.325 129.328C206.371 130.873 205.251 131.941 203.986 132.532C202.763 133.081 201.415 133.486 199.963 133.755C198.511 133.983 197.008 134.232 195.463 134.502C193.96 134.771 192.456 135.362 190.963 136.275C190.372 136.047 189.823 136.047 189.325 136.275C188.869 136.503 188.185 136.575 187.283 136.482C187.013 136.752 186.671 136.959 186.256 137.094C185.852 137.187 185.437 137.301 185.033 137.436C185.219 137.84 185.281 138.276 185.24 138.732C185.24 139.136 185.312 139.479 185.447 139.759C187.044 139.893 188.786 139.873 190.704 139.686C192.664 139.499 194.571 139.385 196.438 139.344C196.479 139.572 196.459 139.727 196.365 139.821C196.272 139.862 196.251 139.976 196.293 140.163C196.614 140.391 196.925 140.681 197.247 141.055C197.568 141.376 197.879 141.687 198.2 142.009C198.522 142.33 198.833 142.6 199.154 142.828C199.517 143.014 199.932 143.076 200.378 143.035C200.564 143.398 200.678 143.813 200.72 144.258C200.813 144.663 200.761 145.098 200.585 145.555C199.859 146.052 199.134 146.581 198.397 147.12C197.672 147.618 196.894 148.074 196.075 148.489C195.297 148.893 194.457 149.235 193.555 149.515C192.695 149.743 191.71 149.837 190.621 149.785C190.393 149.785 190.217 149.785 190.072 149.785C189.978 149.785 189.843 149.712 189.667 149.577C189.304 149.806 188.776 149.878 188.102 149.785C187.469 149.691 186.961 149.764 186.598 149.992C186.1 149.764 185.489 149.671 184.753 149.723C184.068 149.723 183.457 149.629 182.907 149.453C182.181 150.407 181.518 151.433 180.927 152.522C180.336 153.611 179.817 154.772 179.361 156.006C180.906 156.234 182.181 156.327 183.187 156.275C184.234 156.234 185.209 156.161 186.121 156.068C187.034 155.933 187.967 155.819 188.921 155.726C189.875 155.591 191.077 155.539 192.539 155.591C193.452 155.093 194.52 154.772 195.743 154.637C197.018 154.451 198.18 154.181 199.227 153.818C199.59 153.953 199.911 154.202 200.181 154.565C200.45 154.886 200.699 155.197 200.927 155.519C201.197 155.788 201.477 156.037 201.746 156.265C202.016 156.493 202.358 156.587 202.773 156.535C202.96 156.721 203.074 156.939 203.115 157.219C203.208 157.447 203.271 157.675 203.322 157.903C203.364 158.131 203.436 158.339 203.53 158.515C203.665 158.65 203.872 158.702 204.142 158.65C203.457 160.153 202.659 161.315 201.757 162.134C200.896 162.911 199.89 163.502 198.75 163.907C197.609 164.311 196.334 164.632 194.924 164.861C193.555 165.089 192.031 165.358 190.352 165.68C189.947 165.773 189.605 165.752 189.325 165.607C189.055 165.514 188.734 165.472 188.371 165.472C187.324 165.7 186.069 165.908 184.618 166.084C183.166 166.271 181.684 166.333 180.18 166.291C178.677 166.25 177.246 166.043 175.877 165.68C174.509 165.358 173.399 164.767 172.539 163.907C172.176 163.585 171.927 163.222 171.792 162.818C171.699 162.362 171.408 162.02 170.9 161.791C170.859 161.2 170.766 160.537 170.631 159.811C170.496 159.085 170.361 158.328 170.226 157.561C170.092 156.742 169.978 155.944 169.884 155.176C169.843 154.399 169.884 153.694 170.019 153.061C170.154 152.377 170.423 151.765 170.838 151.216C171.294 150.666 171.45 150.075 171.315 149.443C171.543 149.401 171.678 149.287 171.72 149.101C171.761 148.872 171.948 148.779 172.269 148.831C172.539 148.012 172.839 147.234 173.161 146.508C173.482 145.783 173.793 145.078 174.115 144.393C174.478 143.709 174.82 143.025 175.141 142.351C175.504 141.625 175.846 140.827 176.168 139.966C175.535 139.375 175.058 138.742 174.737 138.058C174.467 137.332 174.26 136.627 174.125 135.943C173.99 135.217 173.876 134.491 173.783 133.755C173.69 132.978 173.534 132.21 173.306 131.433C173.762 130.748 174.312 130.209 174.944 129.795C175.628 129.338 176.354 128.975 177.132 128.706C177.909 128.436 178.749 128.208 179.651 128.021C180.564 127.835 181.518 127.638 182.513 127.41C184.327 126.819 185.945 126.363 187.355 126.041C188.807 125.72 190.217 125.471 191.585 125.295C192.995 125.066 194.447 124.859 195.95 124.683C197.454 124.496 199.154 124.227 201.072 123.864C201.477 124.268 201.871 124.475 202.234 124.475C202.42 124.071 202.617 123.957 202.845 124.133C203.115 124.268 203.229 124.133 203.188 123.729C203.644 124.507 204.214 125.16 204.898 125.709C205.603 126.217 206.402 126.653 207.262 127.016ZM246.766 162.973C244.578 163.067 242.65 163.015 240.97 162.839C239.332 162.652 237.714 162.227 236.128 161.543C236.035 161.501 235.941 161.387 235.859 161.2C235.765 161.014 235.672 160.879 235.589 160.796C235.319 160.661 234.977 160.609 234.562 160.661C234.2 160.661 233.878 160.62 233.609 160.527C233.246 160.34 232.675 160.008 231.898 159.5C231.12 158.951 230.415 158.453 229.783 157.997C228.964 157.364 228.186 156.721 227.46 156.089C226.734 155.456 226.091 154.772 225.552 154.046C225.418 153.86 225.231 153.777 225.003 153.777C224.775 153.735 224.567 153.663 224.391 153.569C223.074 154.388 221.954 155.415 221.052 156.638C220.14 157.862 219.279 159.116 218.46 160.392C217.641 161.667 216.781 162.87 215.868 164.01C214.956 165.151 213.795 166.011 212.384 166.602C211.98 166.602 211.607 166.53 211.296 166.395C210.974 166.26 210.684 166.074 210.404 165.846C210.134 165.659 209.855 165.483 209.585 165.296C209.315 165.109 209.015 164.975 208.693 164.892C208.693 164.342 208.579 163.844 208.351 163.388C208.164 162.932 207.967 162.497 207.739 162.092C207.553 161.688 207.418 161.294 207.335 160.931C207.242 160.527 207.335 160.133 207.605 159.77C207.335 159.5 206.92 159.199 206.381 158.878C206.651 158.608 206.765 158.36 206.723 158.131C206.723 157.903 206.682 157.675 206.588 157.447C206.495 157.219 206.402 156.97 206.319 156.701C206.277 156.431 206.34 156.151 206.526 155.881C206.754 155.881 207.024 155.84 207.345 155.747C207.076 155.384 206.941 155.176 206.941 155.135C206.982 155.042 206.941 154.928 206.806 154.793C206.713 154.523 206.765 154.357 206.941 154.316C207.128 154.223 207.304 154.129 207.491 154.046C207.677 151.817 208.061 149.743 208.652 147.836C209.243 145.928 209.906 144.082 210.632 142.309C211.358 140.536 212.063 138.742 212.747 136.918C213.473 135.103 214.064 133.143 214.52 131.049C215.018 130.551 215.412 129.96 215.682 129.276C216.003 128.592 216.314 127.907 216.635 127.234C216.998 126.549 217.382 125.896 217.797 125.253C218.253 124.569 218.865 124.03 219.642 123.615C220.275 123.656 220.845 123.843 221.353 124.164C221.851 124.434 222.463 124.548 223.199 124.507C223.333 124.735 223.448 124.963 223.541 125.191C223.676 125.419 223.842 125.647 224.018 125.875L225.044 125.668C225.542 126.072 225.977 126.601 226.34 127.234C226.745 127.825 227.025 128.457 227.159 129.141C227.294 129.826 227.273 130.479 227.087 131.122C226.9 131.713 226.475 132.19 225.791 132.552C225.832 132.781 225.832 132.957 225.791 133.102C225.791 133.195 225.77 133.289 225.718 133.372C225.677 133.465 225.646 133.558 225.646 133.641C225.646 133.734 225.718 133.869 225.853 134.046C224.941 134.73 224.256 135.684 223.81 136.907C223.354 138.131 223.105 139.23 223.064 140.184C223.613 139.634 224.204 139.116 224.837 138.618C225.521 138.069 226.206 137.55 226.879 137.052C227.605 136.555 228.29 136.078 228.922 135.622C229.606 135.165 230.218 134.709 230.768 134.253C232.271 132.884 233.702 131.796 235.071 130.977C236.481 130.116 237.963 129.162 239.508 128.115C239.871 128.021 240.141 128.021 240.327 128.115C240.555 128.156 240.784 128.229 241.012 128.322C241.012 128.053 240.918 127.887 240.742 127.845C240.607 127.804 240.555 127.617 240.607 127.296C241.292 127.109 241.883 126.912 242.38 126.684C242.878 126.414 243.427 126.166 244.018 125.937C244.423 126.342 244.817 126.777 245.18 127.234C245.543 127.638 246.04 127.897 246.683 127.98C246.911 128.478 247.181 128.872 247.502 129.141C247.824 129.369 248.135 129.598 248.456 129.826C248.778 130.054 249.047 130.323 249.275 130.645C249.545 130.966 249.711 131.464 249.752 132.148C249.566 132.47 249.369 132.812 249.14 133.175C248.954 133.538 248.778 133.973 248.591 134.471C247.679 135.29 246.745 136.016 245.791 136.658C244.879 137.291 243.946 137.913 242.992 138.504C242.038 139.095 241.063 139.686 240.058 140.277C239.052 140.868 238.036 141.573 236.989 142.392C236.761 142.714 236.47 143.004 236.097 143.284C235.776 143.512 235.433 143.761 235.071 144.03C234.708 144.258 234.365 144.507 234.044 144.777C233.723 145.046 233.474 145.368 233.298 145.731C233.163 145.772 233.028 145.803 232.893 145.803C232.758 145.803 232.624 145.824 232.489 145.876C232.354 146.197 232.126 146.446 231.804 146.622C231.535 146.809 231.348 147.058 231.255 147.369C231.939 148.821 232.821 149.94 233.92 150.708C235.008 151.485 236.242 152.045 237.6 152.418C238.969 152.74 240.441 152.916 242.038 152.968C243.635 152.968 245.294 152.968 247.015 152.968C247.202 152.926 247.264 152.833 247.222 152.698C247.222 152.512 247.336 152.45 247.564 152.491C248.653 152.854 249.493 153.383 250.084 154.057C250.675 154.689 251.38 155.332 252.199 155.964C252.106 157.696 251.587 159.127 250.634 160.267C249.638 161.387 248.363 162.289 246.766 162.973ZM265.191 160.651C265.419 162.02 265.326 163.088 264.921 163.855C264.558 164.632 264.009 165.192 263.283 165.566C262.599 165.97 261.8 166.198 260.898 166.25C259.986 166.291 259.125 166.25 258.306 166.115C257.85 165.483 257.446 164.684 257.083 163.73C256.72 162.776 256.378 161.802 256.056 160.796C255.735 159.749 255.444 158.722 255.165 157.727C254.936 156.721 254.729 155.84 254.553 155.062C254.781 154.513 254.916 153.901 254.957 153.217C255.05 152.491 255.092 151.765 255.092 151.029C255.133 150.303 255.165 149.577 255.165 148.841C255.206 148.064 255.279 147.338 255.372 146.654C255.693 144.746 256.15 142.921 256.741 141.2C257.373 139.468 257.881 137.675 258.244 135.808C258.337 135.404 258.285 135.01 258.109 134.647C257.974 134.284 257.954 133.942 258.037 133.62C258.078 133.434 258.223 133.32 258.441 133.278C258.669 133.185 258.804 133.029 258.845 132.801C258.98 132.304 259.001 131.889 258.918 131.578C258.876 131.256 258.959 130.873 259.187 130.417C259.416 130.054 259.685 129.525 260.007 128.851C260.369 128.125 260.504 127.368 260.411 126.601C260.815 126.331 261.209 126.01 261.572 125.647C261.935 125.284 262.298 124.963 262.661 124.693C263.065 124.372 263.501 124.102 263.957 123.874C264.455 123.646 265.046 123.532 265.73 123.532C266.093 123.988 266.321 124.486 266.414 125.035C266.549 125.585 266.663 126.124 266.756 126.674C266.891 127.223 267.078 127.742 267.306 128.239C267.534 128.695 267.918 129.058 268.467 129.328C268.467 129.691 268.467 130.147 268.467 130.697C268.467 131.246 268.488 131.785 268.54 132.335C268.581 132.832 268.675 133.309 268.809 133.766C268.996 134.17 269.266 134.45 269.628 134.585C268.809 136.772 268.032 138.929 267.306 141.065C266.622 143.201 266.051 145.368 265.595 147.545C265.139 149.681 264.849 151.848 264.703 154.026C264.621 156.224 264.786 158.422 265.191 160.651ZM287.099 153.009C286.685 153.103 286.394 153.352 286.208 153.756C286.021 154.119 285.845 154.502 285.658 154.917C285.523 155.322 285.357 155.716 285.181 156.078C285.046 156.4 284.818 156.555 284.497 156.555C284.455 156.918 284.31 157.24 284.082 157.509C283.895 157.779 283.719 158.08 283.533 158.401C283.346 158.671 283.211 158.992 283.118 159.355C283.024 159.676 283.076 160.06 283.253 160.516C282.89 160.786 282.662 161.18 282.568 161.677C282.475 162.175 282.361 162.652 282.226 163.108C282.133 163.564 281.957 163.948 281.677 164.27C281.397 164.591 280.899 164.726 280.173 164.674C280.038 164.861 280.018 164.975 280.101 165.016C280.194 165.058 280.256 165.223 280.308 165.493C279.81 165.4 279.416 165.42 279.147 165.566C278.919 165.752 278.618 165.866 278.255 165.908C277.394 165.638 276.658 165.161 276.067 164.477C275.518 163.793 275.02 163.046 274.564 162.227C274.159 161.366 273.765 160.495 273.403 159.635C273.081 158.774 272.77 158.017 272.449 157.385C272.583 156.887 272.604 156.41 272.521 155.954C272.428 155.456 272.272 155.042 272.044 154.731C274.274 150.003 276.71 144.953 279.344 139.582C281.977 134.211 284.486 128.913 286.85 123.688C287.898 124.092 288.924 124.579 289.919 125.118C290.967 125.616 291.9 126.207 292.719 126.891C293.58 127.576 294.305 128.374 294.896 129.276C295.487 130.137 295.871 131.122 296.058 132.21C295.964 132.48 295.85 132.594 295.715 132.552C295.622 132.459 295.529 132.48 295.446 132.625C295.632 132.853 295.715 133.009 295.715 133.102C295.757 133.195 295.757 133.289 295.715 133.372C295.715 133.465 295.715 133.6 295.715 133.776C295.715 133.911 295.788 134.118 295.923 134.388C295.736 134.346 295.601 134.367 295.508 134.46C295.467 134.554 295.321 134.554 295.093 134.46C295.28 134.958 295.321 135.373 295.228 135.684C295.187 136.005 295.093 136.296 294.948 136.575C294.813 136.804 294.699 137.073 294.606 137.395C294.513 137.664 294.533 138.027 294.679 138.483C294.544 138.483 294.43 138.525 294.336 138.618C294.295 138.66 294.243 138.732 294.202 138.825C294.16 138.867 294.088 138.939 293.994 139.033C293.953 139.074 293.859 139.074 293.725 139.033C293.859 140.038 293.911 141.034 293.859 142.04C293.818 143.045 293.766 144.061 293.725 145.109C293.725 146.114 293.745 147.182 293.797 148.313C293.839 149.401 294.005 150.542 294.274 151.724C295.912 150.77 297.208 149.536 298.162 148.043C299.168 146.54 299.956 144.86 300.547 142.994C301.18 141.127 301.657 139.126 301.978 136.99C302.299 134.854 302.642 132.667 303.004 130.437C303.419 130.033 303.73 129.525 303.958 128.934C304.186 128.343 304.394 127.731 304.57 127.088C304.757 126.404 304.933 125.751 305.12 125.108C305.306 124.424 305.524 123.812 305.804 123.262C306.488 123.356 307.058 123.584 307.504 123.947C308.002 124.268 308.458 124.631 308.873 125.035C309.288 125.398 309.713 125.761 310.169 126.124C310.625 126.445 311.195 126.643 311.869 126.736C312.419 127.513 312.917 128.26 313.373 128.986C313.829 129.712 314.119 130.489 314.254 131.308C314.026 131.671 313.85 132.086 313.705 132.532C313.611 132.988 313.497 133.444 313.362 133.9C313.228 134.357 313.041 134.792 312.813 135.196C312.585 135.559 312.263 135.881 311.859 136.15C311.724 137.332 311.538 138.421 311.31 139.427C311.123 140.381 310.926 141.335 310.698 142.288C310.511 143.242 310.356 144.248 310.221 145.295C310.086 146.301 310.034 147.41 310.086 148.634C309.723 149.681 309.34 150.791 308.925 151.973C308.52 153.155 308.199 154.223 307.971 155.176C307.245 155.767 306.675 156.472 306.27 157.292C305.856 158.111 305.431 158.93 304.974 159.749C304.788 159.936 304.674 159.977 304.632 159.884C304.591 159.79 304.425 159.728 304.155 159.676C304.197 159.863 304.197 159.998 304.155 160.081C304.114 160.174 304.041 160.267 303.948 160.35C303.906 160.392 303.855 160.485 303.813 160.62C303.813 160.755 303.855 160.941 303.948 161.169C303.305 161.439 302.745 161.833 302.237 162.331C301.739 162.828 301.19 163.285 300.599 163.699C300.049 164.104 299.375 164.384 298.556 164.518C297.779 164.653 296.763 164.498 295.487 164.041C293.621 162.673 291.962 161.107 290.51 159.334C289.163 157.582 288.012 155.467 287.099 153.009Z" fill="#FF2929"/>
<path d="M346.675 160.881C345.358 159.875 344.269 158.631 343.398 157.127C342.579 155.624 341.916 154.037 341.418 152.347C340.962 150.668 340.64 148.936 340.464 147.163C340.329 145.349 340.278 143.617 340.329 141.979C340.744 140.755 341.242 139.636 341.833 138.64C342.424 137.593 343.087 136.618 343.813 135.706C344.539 134.752 345.296 133.86 346.063 133.041C346.882 132.181 347.681 131.31 348.448 130.449C348.717 130.449 348.966 130.522 349.194 130.657C349.381 130.159 349.651 129.723 350.013 129.361C350.376 128.998 350.77 128.676 351.175 128.407C351.589 128.085 351.994 127.795 352.409 127.515C352.823 127.194 353.155 126.831 353.435 126.426C354.576 126.157 355.571 125.763 356.442 125.265C357.354 124.767 358.215 124.218 359.034 123.627C359.853 123.036 360.693 122.486 361.554 121.989C362.414 121.491 363.42 121.097 364.56 120.827C364.965 120.371 365.473 119.988 366.064 119.666C366.707 119.345 367.318 119.054 367.909 118.774C368.552 118.505 369.143 118.204 369.682 117.883C370.273 117.561 370.75 117.136 371.113 116.587C371.383 116.95 371.777 117.084 372.274 116.991C372.772 116.856 373.228 116.721 373.643 116.587C373.913 116.545 374.141 116.587 374.327 116.721C374.514 116.856 374.67 117.022 374.804 117.198C374.991 117.333 375.126 117.427 375.219 117.468C375.354 117.509 375.489 117.375 375.634 117.064C375.997 117.105 376.09 117.271 375.903 117.541C375.769 117.81 375.675 117.997 375.634 118.09C376.09 117.997 376.453 118.09 376.723 118.36C377.044 118.588 377.521 118.743 378.153 118.837C378.381 119.065 378.454 119.241 378.361 119.386C378.267 119.521 378.205 119.749 378.153 120.07C379.792 120.568 380.839 121.367 381.295 122.455C381.751 123.502 381.793 124.612 381.43 125.794C381.067 126.934 380.383 128.002 379.387 128.998C378.433 129.952 377.365 130.594 376.183 130.905C374.773 131.268 373.456 131.631 372.223 131.994C371.041 132.357 369.879 132.772 368.739 133.218C367.65 133.674 366.603 134.223 365.597 134.856C364.643 135.447 363.803 136.152 363.078 136.971C361.802 137.334 360.641 137.832 359.594 138.474C358.588 139.107 357.634 139.812 356.732 140.59C355.861 141.367 355.021 142.186 354.213 143.047C353.394 143.866 352.574 144.685 351.755 145.504C351.755 146.282 351.621 146.873 351.341 147.277C351.071 147.682 350.77 148.096 350.449 148.501C350.542 149.361 350.718 150.118 350.998 150.751C351.32 151.342 351.631 151.953 351.952 152.596C355.592 153.685 359.438 154.369 363.482 154.639C367.578 154.867 371.621 155.002 375.623 155.043C376.038 155.593 376.484 156.111 376.992 156.609C377.542 157.065 378.019 157.542 378.423 158.04C378.879 158.537 379.221 159.128 379.449 159.813C379.729 160.445 379.792 161.223 379.657 162.135C378.879 162.913 378.039 163.659 377.137 164.385C376.225 165.069 375.323 165.754 374.41 166.428C374.006 166.469 373.498 166.469 372.907 166.428C372.357 166.386 371.766 166.355 371.134 166.355C370.543 166.355 369.931 166.397 369.288 166.49C368.697 166.531 368.127 166.676 367.588 166.894C364.716 166.801 361.782 166.459 358.785 165.868C355.778 165.235 353.01 164.478 350.459 163.618C349.962 163.027 349.433 162.477 348.894 161.98C348.313 161.503 347.587 161.109 346.675 160.881ZM419.14 161.088C418.87 161.866 418.455 162.654 417.916 163.473C417.419 164.25 416.796 164.955 416.071 165.588C415.386 166.179 414.619 166.676 413.748 167.091C412.888 167.496 411.975 167.724 411.021 167.776C410.43 167.641 410.015 167.475 409.787 167.299C409.601 167.164 409.404 167.029 409.176 166.894C409.041 166.801 408.906 166.739 408.761 166.687C408.668 166.594 408.574 166.531 408.491 166.479L407.672 166.137L407.942 165.246C408.035 164.883 408.014 164.613 407.869 164.427C407.734 164.198 407.454 163.908 407.05 163.535C406.915 163.4 406.77 163.265 406.635 163.13C406.501 162.996 406.387 162.861 406.293 162.726L405.132 161.43L406.978 160.953C408.118 160.632 408.865 160.227 409.227 159.73C409.642 159.232 409.798 158.392 409.704 157.21C408.792 157.023 408.025 157.003 407.382 157.138C406.791 157.272 406.179 157.438 405.536 157.615C404.717 157.843 403.877 158.05 403.017 158.226C402.198 158.361 401.285 158.434 400.29 158.434C399.927 158.434 399.585 158.434 399.263 158.434C398.942 158.392 398.6 158.34 398.237 158.299L397.553 158.164C397.459 157.666 397.366 157.386 397.283 157.345C397.19 157.252 397.096 157.158 397.013 157.075C396.785 156.847 396.537 156.557 396.267 156.184C396.039 155.779 395.997 155.271 396.132 154.68C395.904 154.276 395.769 153.861 395.717 153.457C395.448 154.006 395.24 154.566 395.106 155.168L394.826 155.852L394.141 155.987C394.048 156.028 393.986 156.142 393.934 156.329C393.893 156.464 393.861 156.578 393.861 156.671L393.519 157.832C393.426 157.926 393.333 158.019 393.25 158.102C393.156 158.143 393.063 158.216 392.97 158.309C392.876 158.714 392.762 159.128 392.628 159.533C392.493 159.937 392.358 160.331 392.213 160.694C391.985 161.285 391.777 161.876 391.601 162.467C391.466 163.016 391.415 163.556 391.466 164.105L391.197 164.852C390.969 165.121 390.72 165.349 390.44 165.536C390.17 165.671 389.89 165.806 389.621 165.94C389.527 166.034 389.393 166.127 389.206 166.21C389.071 166.251 388.957 166.303 388.864 166.345L388.657 167.091L387.837 167.226C387.34 167.319 386.977 167.382 386.749 167.433C386.562 167.475 386.344 167.506 386.064 167.506L385.38 167.433C384.882 167.029 384.499 166.708 384.219 166.479C383.949 166.21 383.628 165.961 383.265 165.733C382.861 165.183 382.632 164.779 382.581 164.509C382.539 164.24 382.487 163.991 382.446 163.763C382.353 163.493 382.311 163.265 382.311 163.079C382.27 162.892 382.197 162.757 382.104 162.674L381.212 161.855L381.969 161.243L382.041 160.082C382.954 157.76 383.908 155.53 384.903 153.395C385.95 151.259 387.018 149.071 388.107 146.842C388.47 146.116 388.812 145.39 389.134 144.654C389.496 143.928 389.859 143.202 390.222 142.466C390.181 142.331 390.15 142.166 390.15 141.989C390.15 141.803 390.191 141.606 390.284 141.378C390.782 140.6 391.197 139.926 391.508 139.335C391.829 138.703 392.151 138.06 392.462 137.427C392.825 136.65 393.188 135.903 393.55 135.177C393.965 134.451 394.463 133.695 395.054 132.927L396.143 132.45C396.277 132.409 396.443 132.357 396.619 132.316C396.806 132.222 397.003 132.181 397.231 132.181L398.258 132.316C399.533 131.725 400.642 130.905 401.596 129.858C402.55 128.77 403.525 127.474 404.531 125.97L405.215 125.016L406.107 125.566C406.335 125.701 406.656 125.835 407.06 125.97C407.475 126.063 407.9 126.177 408.357 126.312C409.176 126.499 409.943 126.696 410.679 126.924C411.405 127.152 411.996 127.494 412.452 127.95C412.732 128.676 412.888 129.226 412.929 129.589C412.97 129.952 413.043 130.314 413.136 130.677C413.271 131.455 413.385 132.222 413.479 133C413.613 133.778 413.707 134.638 413.748 135.592C413.976 136.37 414.163 137.137 414.298 137.915C414.484 138.64 414.64 139.397 414.775 140.164C415.003 141.253 415.231 142.321 415.459 143.368C415.687 144.374 415.988 145.328 416.351 146.23C416.713 146.23 416.942 146.251 417.035 146.303C417.263 146.209 417.491 146.147 417.719 146.095C417.989 146.054 418.289 146.002 418.611 145.96L419.357 145.888L419.637 146.572C419.679 146.8 419.907 147.028 420.322 147.256C420.913 147.298 421.348 147.443 421.618 147.661C421.887 147.847 422.147 148.044 422.364 148.273C422.551 148.459 422.727 148.594 422.914 148.677L423.94 149.081L423.391 150.108C422.935 150.927 422.271 151.725 421.41 152.493C420.591 153.218 419.658 153.83 418.611 154.338C418.652 154.608 418.683 154.888 418.683 155.157C418.725 155.385 418.798 155.634 418.891 155.904C419.026 156.681 419.14 157.469 419.233 158.288C419.326 159.108 419.326 159.947 419.233 160.808L419.14 161.088ZM399.419 149.289C400.788 149.195 402.011 149.102 403.1 149.019C404.24 148.884 405.484 148.677 406.853 148.407C406.532 147.039 406.19 145.629 405.827 144.177C405.464 142.674 405.08 141.201 404.665 139.739L404.251 140.424C403.338 141.378 402.457 142.446 401.586 143.628C400.767 144.81 400.062 145.929 399.471 146.966C399.191 147.371 398.921 147.785 398.652 148.19C398.382 148.594 398.123 149.009 397.905 149.413C398.175 149.372 398.424 149.341 398.652 149.341C398.942 149.351 399.191 149.33 399.419 149.289ZM423.37 136.121C423.691 135.167 424.189 134.348 424.873 133.663C425.599 132.979 426.377 132.409 427.196 131.953C428.057 131.455 428.948 131.04 429.861 130.729C430.773 130.408 431.634 130.138 432.453 129.91C434.267 129.132 436.206 128.407 438.249 127.722C440.343 126.997 442.458 126.354 444.594 125.815C446.772 125.265 449.001 124.923 451.282 124.788C453.552 124.601 455.948 124.881 458.446 125.607C458.581 126.063 458.789 126.499 459.058 126.903C459.328 127.308 459.608 127.722 459.877 128.127C460.199 128.531 460.468 128.946 460.696 129.35C460.924 129.713 461.059 130.097 461.111 130.511C461.567 130.916 461.93 131.372 462.2 131.88C462.48 132.336 462.521 132.948 462.335 133.726C461.878 134.089 461.422 134.431 460.966 134.752C460.551 135.022 460.105 135.271 459.597 135.499C457.918 135.094 456.207 134.949 454.486 135.094C452.754 135.229 451.209 135.343 449.851 135.436C449.436 135.032 448.939 134.825 448.348 134.825C447.798 134.825 447.207 134.918 446.575 135.094C445.984 135.281 445.372 135.457 444.729 135.644C444.138 135.83 443.568 135.872 443.029 135.779C442.572 136.142 442.002 136.39 441.328 136.525C440.685 136.618 439.98 136.712 439.213 136.795C439.171 137.023 439.213 137.178 439.348 137.272C439.483 137.313 439.503 137.458 439.42 137.676C439.7 137.997 440.032 138.226 440.447 138.36C440.903 138.495 441.359 138.63 441.815 138.765C442.313 138.9 442.749 139.086 443.111 139.314C443.474 139.501 443.723 139.812 443.868 140.268C444.553 140.268 445.144 140.424 445.641 140.745C446.139 141.067 446.554 141.45 446.875 141.906C447.197 142.363 447.425 142.86 447.56 143.41C447.746 143.907 447.829 144.364 447.829 144.778C447.964 145.141 448.13 145.297 448.306 145.255C448.493 145.214 448.69 145.297 448.918 145.525C449.053 146.116 449.395 146.728 449.944 147.371C450.494 147.962 450.919 148.625 451.24 149.351C451.334 150.491 451.396 151.508 451.448 152.42C451.489 153.281 451.334 154.172 450.971 155.085C450.286 156.764 449.333 158.268 448.099 159.585C446.917 160.901 445.548 162.083 444.003 163.13C442.5 164.136 440.882 164.997 439.161 165.723C437.43 166.448 435.75 167.06 434.112 167.568C433.925 167.527 433.749 167.527 433.562 167.568C433.376 167.61 433.334 167.496 433.427 167.226C433.064 167.547 432.65 167.744 432.204 167.838C431.789 167.931 431.343 167.952 430.835 167.91C430.338 167.91 429.809 167.89 429.27 167.838C428.772 167.796 428.295 167.817 427.839 167.91C427.517 167.589 427.227 167.278 426.947 166.956C426.719 166.687 426.532 166.324 426.398 165.868C426.169 165.868 426.055 165.754 426.055 165.526C426.097 165.298 426.035 165.183 425.848 165.183C426.118 164.727 426.232 164.478 426.19 164.437C426.19 164.344 426.118 164.281 425.983 164.23C425.89 164.188 425.796 164.136 425.713 164.095C425.62 164.001 425.599 163.887 425.641 163.753C425.827 163.39 425.89 162.975 425.848 162.529C425.807 162.031 425.755 161.523 425.713 161.026C425.672 160.528 425.693 160.051 425.786 159.595C425.921 159.139 426.263 158.776 426.812 158.506C428.357 158.693 429.819 158.641 431.177 158.371C432.588 158.05 433.904 157.625 435.138 157.075C436.362 156.526 437.523 155.935 438.622 155.302C439.762 154.67 440.872 154.1 441.961 153.592C442.095 153.187 442.282 152.845 442.51 152.565C442.78 152.296 443.06 152.047 443.329 151.819C443.599 151.59 443.858 151.342 444.086 151.072C444.314 150.802 444.47 150.46 444.563 150.046C444.605 149.724 444.522 149.548 444.283 149.496C444.096 149.403 444.014 149.226 444.014 148.946L443.267 148.739C442.406 148.241 441.421 147.827 440.333 147.516C439.244 147.153 438.311 146.769 437.533 146.354C437.036 146.624 436.559 146.697 436.102 146.562C435.688 146.427 435.149 146.292 434.464 146.157C432.919 146.064 431.416 145.909 429.964 145.68C428.554 145.452 427.186 145.048 425.869 144.457C425.775 144.229 425.661 144.022 425.527 143.845C425.392 143.659 425.143 143.617 424.78 143.71C424.5 143.348 424.231 143.005 423.961 142.684C423.691 142.321 423.432 141.937 423.214 141.523C423.308 140.973 423.37 140.517 423.422 140.154C423.463 139.75 423.329 139.356 423.007 138.993C423.194 138.402 423.329 137.925 423.422 137.562C423.463 137.189 423.463 136.712 423.37 136.121ZM469.157 162.042C469.385 163.41 469.292 164.478 468.887 165.246C468.524 166.023 467.975 166.583 467.249 166.956C466.565 167.361 465.777 167.589 464.864 167.641C463.952 167.682 463.091 167.641 462.272 167.506C461.816 166.873 461.412 166.075 461.038 165.121C460.676 164.167 460.333 163.193 460.012 162.187C459.691 161.14 459.4 160.113 459.12 159.118C458.892 158.112 458.685 157.231 458.509 156.453C458.737 155.904 458.871 155.292 458.923 154.608C459.017 153.882 459.058 153.156 459.058 152.42C459.1 151.694 459.131 150.968 459.131 150.232C459.172 149.455 459.245 148.729 459.338 148.044C459.659 146.137 460.116 144.312 460.707 142.591C461.339 140.859 461.847 139.065 462.21 137.199C462.303 136.795 462.252 136.401 462.075 136.038C461.941 135.675 461.92 135.333 462.003 135.011C462.044 134.825 462.189 134.711 462.407 134.669C462.635 134.576 462.77 134.42 462.822 134.192C462.957 133.695 462.977 133.28 462.894 132.969C462.853 132.647 462.936 132.264 463.174 131.808C463.402 131.445 463.672 130.916 463.993 130.242C464.356 129.516 464.491 128.759 464.408 127.992C464.823 127.722 465.207 127.401 465.569 127.038C465.932 126.675 466.295 126.354 466.658 126.084C467.073 125.763 467.498 125.493 467.954 125.265C468.452 125.037 469.043 124.923 469.727 124.923C470.09 125.379 470.318 125.877 470.412 126.426C470.546 126.976 470.66 127.515 470.754 128.065C470.888 128.614 471.075 129.132 471.303 129.63C471.531 130.086 471.915 130.449 472.464 130.719C472.464 131.082 472.464 131.538 472.464 132.087C472.464 132.637 472.485 133.176 472.537 133.726C472.579 134.223 472.672 134.7 472.807 135.157C472.993 135.561 473.263 135.841 473.626 135.976C472.807 138.163 472.029 140.32 471.303 142.456C470.619 144.592 470.049 146.759 469.603 148.936C469.147 151.072 468.846 153.239 468.711 155.416C468.587 157.615 468.742 159.813 469.157 162.042ZM491.055 154.4C490.64 154.494 490.35 154.742 490.163 155.147C489.977 155.51 489.8 155.893 489.614 156.308C489.479 156.712 489.313 157.106 489.137 157.469C489.002 157.791 488.774 157.946 488.453 157.946C488.411 158.309 488.266 158.631 488.038 158.9C487.851 159.17 487.675 159.47 487.488 159.792C487.302 160.061 487.167 160.383 487.074 160.746C486.98 161.067 487.032 161.451 487.208 161.907C486.845 162.177 486.617 162.571 486.524 163.068C486.431 163.566 486.317 164.043 486.182 164.499C486.089 164.955 485.912 165.339 485.632 165.66C485.352 165.982 484.855 166.117 484.129 166.065C483.994 166.251 483.973 166.365 484.056 166.407C484.15 166.448 484.212 166.614 484.264 166.884C483.766 166.791 483.372 166.811 483.102 166.956C482.874 167.143 482.574 167.257 482.211 167.299C481.35 167.029 480.614 166.552 480.023 165.868C479.474 165.183 478.976 164.437 478.52 163.618C478.105 162.757 477.721 161.886 477.358 161.026C477.037 160.165 476.716 159.408 476.404 158.776C476.539 158.278 476.56 157.801 476.477 157.345C476.384 156.847 476.228 156.433 476 156.121C478.229 151.393 480.666 146.344 483.299 140.973C485.933 135.602 488.442 130.304 490.806 125.078C491.853 125.483 492.88 125.97 493.875 126.509C494.922 127.007 495.856 127.598 496.675 128.282C497.535 128.967 498.261 129.765 498.852 130.667C499.443 131.528 499.827 132.513 500.013 133.601C499.92 133.871 499.806 133.985 499.671 133.943C499.578 133.85 499.485 133.871 499.402 134.016C499.588 134.244 499.671 134.4 499.671 134.493C499.713 134.586 499.713 134.68 499.671 134.763C499.671 134.856 499.671 134.991 499.671 135.167C499.671 135.302 499.744 135.509 499.879 135.779C499.692 135.737 499.557 135.758 499.464 135.851C499.422 135.945 499.277 135.945 499.049 135.851C499.236 136.349 499.277 136.764 499.184 137.075C499.142 137.396 499.049 137.686 498.904 137.966C498.769 138.194 498.655 138.464 498.562 138.785C498.468 139.055 498.489 139.418 498.634 139.874C498.5 139.874 498.386 139.916 498.292 140.009C498.251 140.05 498.199 140.123 498.157 140.216C498.116 140.258 498.043 140.33 497.95 140.424C497.909 140.465 497.815 140.465 497.68 140.424C497.815 141.429 497.867 142.425 497.815 143.431C497.774 144.436 497.722 145.452 497.68 146.5C497.68 147.505 497.701 148.573 497.753 149.703C497.795 150.792 497.96 151.933 498.23 153.115C499.868 152.161 501.164 150.927 502.118 149.434C503.124 147.93 503.912 146.251 504.503 144.384C505.135 142.518 505.612 140.517 505.934 138.381C506.255 136.245 506.597 134.057 506.96 131.828C507.365 131.424 507.686 130.916 507.914 130.325C508.142 129.734 508.35 129.122 508.526 128.479C508.712 127.795 508.889 127.142 509.075 126.499C509.262 125.815 509.49 125.203 509.76 124.653C510.444 124.747 511.014 124.975 511.46 125.338C511.958 125.659 512.414 126.022 512.829 126.426C513.243 126.789 513.669 127.152 514.125 127.515C514.581 127.836 515.151 128.033 515.825 128.127C516.375 128.904 516.872 129.651 517.329 130.377C517.785 131.102 518.075 131.88 518.22 132.699C517.992 133.062 517.806 133.477 517.671 133.923C517.577 134.379 517.463 134.835 517.329 135.291C517.194 135.748 517.007 136.183 516.779 136.587C516.551 136.95 516.23 137.272 515.825 137.541C515.69 138.723 515.504 139.812 515.276 140.818C515.089 141.772 514.892 142.725 514.664 143.679C514.477 144.633 514.322 145.639 514.187 146.686C514.052 147.692 514 148.801 514.052 150.025C513.689 151.072 513.306 152.181 512.891 153.363C512.487 154.545 512.165 155.613 511.937 156.567C511.211 157.158 510.641 157.863 510.237 158.682C509.822 159.502 509.397 160.321 508.941 161.14C508.754 161.326 508.64 161.368 508.598 161.275C508.557 161.181 508.391 161.119 508.121 161.067C508.163 161.254 508.163 161.389 508.121 161.472C508.08 161.565 508.007 161.658 507.914 161.741C507.873 161.783 507.821 161.876 507.779 162.011C507.779 162.145 507.821 162.332 507.914 162.56C507.271 162.83 506.711 163.224 506.203 163.721C505.706 164.219 505.156 164.675 504.565 165.09C504.016 165.494 503.342 165.774 502.523 165.909C501.745 166.044 500.729 165.888 499.453 165.432C497.587 164.064 495.928 162.498 494.477 160.725C493.129 158.973 491.967 156.858 491.055 154.4ZM556.293 146.354C556.252 146.904 556.293 147.422 556.428 147.92C556.563 148.418 556.729 148.926 556.905 149.423C557.133 149.88 557.34 150.357 557.517 150.854C557.703 151.352 557.838 151.86 557.931 152.358C558.025 152.99 558.025 153.695 557.931 154.473C557.838 155.199 557.683 155.924 557.454 156.661C557.226 157.345 556.926 157.977 556.563 158.568C556.2 159.118 555.764 159.522 555.267 159.792C554.634 160.611 553.857 161.243 552.944 161.7C552.032 162.156 551.192 162.705 550.425 163.338C549.927 163.659 549.357 163.887 548.724 164.022C548.133 164.157 547.521 164.292 546.879 164.427C546.381 164.696 545.79 164.997 545.106 165.318C544.421 165.588 543.716 165.868 542.99 166.137C542.265 166.365 541.539 166.542 540.803 166.687C540.077 166.78 539.444 166.801 538.895 166.759C537.526 167.257 536.189 167.579 534.872 167.713C533.597 167.9 532.093 167.807 530.372 167.444C528.734 167.672 527.21 167.599 525.8 167.236C524.431 166.874 523.208 166.303 522.119 165.526C521.072 164.707 520.138 163.753 519.319 162.664C518.542 161.523 517.909 160.341 517.412 159.118C517.049 156.526 517.132 154.183 517.681 152.088C518.231 149.952 518.998 147.993 520.004 146.22C521.051 144.405 522.233 142.736 523.55 141.243C524.866 139.698 526.142 138.194 527.376 136.743C527.645 136.836 527.853 136.836 527.987 136.743C528.174 136.608 528.329 136.442 528.464 136.266C528.599 136.038 528.734 135.83 528.879 135.654C529.066 135.468 529.263 135.354 529.491 135.312C529.812 134.628 530.268 134.13 530.859 133.809C531.502 133.446 532 132.948 532.363 132.305C532.767 132.212 533.109 132.077 533.389 131.901C533.669 131.725 533.918 131.517 534.136 131.289C534.416 131.061 534.685 130.854 534.955 130.677C535.225 130.449 535.546 130.294 535.909 130.2V129.454C536.728 129.091 537.319 128.676 537.682 128.23C538.097 127.733 538.574 127.142 539.113 126.457C539.527 126.416 539.838 126.385 540.067 126.385C540.336 126.385 540.73 126.343 541.228 126.25C541.591 125.618 541.912 125.141 542.182 124.819C542.503 124.498 542.959 124.156 543.55 123.793C544.1 124.062 544.691 124.249 545.323 124.342C546.008 124.436 546.599 124.726 547.096 125.234C547.138 125.69 547.283 126.053 547.511 126.323C547.739 126.551 547.988 126.779 548.258 127.007C548.527 127.194 548.776 127.391 549.004 127.619C549.274 127.847 549.46 128.168 549.554 128.573C549.74 128.614 549.854 128.593 549.896 128.5C549.989 128.407 550.124 128.386 550.311 128.427C550.445 129.06 550.611 129.495 550.787 129.723C550.974 129.91 551.15 130.294 551.337 130.885C551.109 131.341 550.922 131.818 550.787 132.316C550.694 132.772 550.425 133.114 549.968 133.342C549.927 133.663 550.01 133.84 550.238 133.892C550.466 133.892 550.601 134.006 550.653 134.234C550.694 134.638 550.632 134.939 550.445 135.125C551.534 136.898 552.519 138.785 553.38 140.787C554.219 142.715 555.194 144.581 556.293 146.354ZM547.76 152.835C547.947 152.337 548.175 151.922 548.444 151.611C548.766 151.29 548.942 150.813 548.994 150.18C548.766 149.817 548.631 149.548 548.579 149.361C548.538 149.133 548.506 148.791 548.506 148.335C547.501 146.925 546.64 145.421 545.914 143.835C545.189 142.197 544.369 140.673 543.457 139.262C543.364 139.449 543.208 139.625 542.98 139.812C542.752 139.999 542.503 139.947 542.234 139.677C542.14 140.04 541.985 140.31 541.757 140.496C541.528 140.631 541.28 140.704 541 140.704C540.73 140.662 540.429 140.59 540.118 140.496C539.838 140.361 539.59 140.196 539.362 140.019C538.045 141.067 536.728 142.093 535.401 143.088C534.084 144.094 532.902 145.245 531.855 146.572C531.668 146.665 531.554 146.707 531.513 146.707C531.471 146.665 531.326 146.686 531.098 146.78C530.735 147.64 530.279 148.438 529.729 149.164C529.232 149.849 528.734 150.554 528.226 151.279C527.728 152.005 527.293 152.783 526.93 153.602C526.567 154.421 526.36 155.375 526.318 156.464C527.096 157.096 527.998 157.49 529.045 157.625C530.092 157.76 531.16 157.78 532.249 157.697C533.389 157.604 534.478 157.469 535.525 157.293C536.614 157.065 537.62 156.951 538.532 156.951C540.44 156.495 542.078 155.904 543.447 155.178C544.826 154.38 546.257 153.612 547.76 152.835Z" fill="white"/>
</g>
</g>
<defs>
<filter id="filter0_dd_1827_1023" x="-7.51495" y="68.0459" width="616.338" height="154.772" filterUnits="userSpaceOnUse" color-interpolation-filters="sRGB">
<feFlood flood-opacity="0" result="BackgroundImageFix"/>
<feColorMatrix in="SourceAlpha" type="matrix" values="0 0 0 0 0 0 0 0 0 0 0 0 0 0 0 0 0 0 127 0" result="hardAlpha"/>
<feOffset dy="4.06573"/>
<feGaussianBlur stdDeviation="25.4108"/>
<feComposite in2="hardAlpha" operator="out"/>
<feColorMatrix type="matrix" values="0 0 0 0 0.273523 0 0 0 0 0.198854 0 0 0 0 0.691667 0 0 0 1 0"/>
<feBlend mode="normal" in2="BackgroundImageFix" result="effect1_dropShadow_1827_1023"/>
<feColorMatrix in="SourceAlpha" type="matrix" values="0 0 0 0 0 0 0 0 0 0 0 0 0 0 0 0 0 0 127 0" result="hardAlpha"/>
<feOffset dy="4.06573"/>
<feGaussianBlur stdDeviation="25.4108"/>
<feComposite in2="hardAlpha" operator="out"/>
<feColorMatrix type="matrix" values="0 0 0 0 0.273523 0 0 0 0 0.198854 0 0 0 0 0.691667 0 0 0 1 0"/>
<feBlend mode="normal" in2="effect1_dropShadow_1827_1023" result="effect2_dropShadow_1827_1023"/>
<feBlend mode="normal" in="SourceGraphic" in2="effect2_dropShadow_1827_1023" result="shape"/>
</filter>
<clipPath id="clip0_1827_1023">
<rect width="600" height="280" fill="white"/>
</clipPath>
</defs>
</svg>
