<svg width="45" height="45" viewBox="0 0 45 45" fill="none" xmlns="http://www.w3.org/2000/svg">
<path d="M22.9214 4.91805C28.7676 4.91805 29.492 4.91805 31.8201 5.02152C33.9413 5.125 35.1312 5.48715 35.9073 5.79757C36.942 6.21146 37.6663 6.67709 38.4424 7.45314C39.2184 8.22919 39.6841 8.9535 40.098 9.98823C40.4084 10.7643 40.7705 11.9025 40.874 14.0754C40.9775 16.4036 40.9775 17.0762 40.9775 22.9741C40.9775 28.8204 40.9775 29.5447 40.874 31.8728C40.7705 33.994 40.4084 35.184 40.098 35.96C39.6841 36.9947 39.2184 37.7191 38.4424 38.4951C37.6663 39.2712 36.942 39.7368 35.9073 40.1507C35.1312 40.4611 33.993 40.8233 31.8201 40.9267C29.492 41.0302 28.8194 41.0302 22.9214 41.0302C17.0752 41.0302 16.3509 41.0302 14.0227 40.9267C11.9015 40.8233 10.7116 40.4611 9.93553 40.1507C8.9008 39.7368 8.17647 39.2712 7.40043 38.4951C6.62438 37.7191 6.15874 36.9947 5.74485 35.96C5.43443 35.184 5.07227 34.0458 4.9688 31.8728C4.86533 29.5447 4.86532 28.8721 4.86532 22.9741C4.86532 17.1279 4.86533 16.4036 4.9688 14.0754C5.07227 11.9542 5.43443 10.7643 5.74485 9.98823C6.15874 8.9535 6.62438 8.22919 7.40043 7.45314C8.17647 6.67709 8.9008 6.21146 9.93553 5.79757C10.7116 5.48715 11.8498 5.125 14.0227 5.02152C16.3509 4.91805 17.0752 4.91805 22.9214 4.91805ZM22.9214 0.934326C16.9717 0.934326 16.1956 0.934328 13.8675 1.08954C11.5394 1.19301 9.93552 1.55517 8.53864 2.12427C7.09001 2.69337 5.84833 3.41769 4.65839 4.65937C3.41671 5.90105 2.69239 7.09099 2.12329 8.53961C1.55418 9.9365 1.19203 11.5403 1.08855 13.8685C0.98508 16.1966 0.93335 16.9727 0.93335 22.9224C0.93335 28.8721 0.933343 29.6481 1.08855 31.9763C1.19203 34.3044 1.55418 35.9083 2.12329 37.3052C2.69239 38.7538 3.41671 39.9955 4.65839 41.1854C5.90007 42.4271 7.09001 43.1514 8.53864 43.7205C9.93552 44.2896 11.5394 44.6518 13.8675 44.7552C16.1956 44.8587 16.9717 44.9104 22.9214 44.9104C28.8711 44.9104 29.6472 44.9104 31.9753 44.7552C34.3035 44.6518 35.9073 44.2896 37.3042 43.7205C38.7528 43.1514 39.9945 42.4271 41.1844 41.1854C42.4261 39.9437 43.1504 38.7538 43.7195 37.3052C44.2886 35.9083 44.6508 34.3044 44.7543 31.9763C44.8577 29.6481 44.9095 28.8721 44.9095 22.9224C44.9095 16.9727 44.9095 16.1966 44.7543 13.8685C44.6508 11.5403 44.2886 9.9365 43.7195 8.53961C43.1504 7.09099 42.4261 5.84931 41.1844 4.65937C39.9427 3.41769 38.7528 2.69337 37.3042 2.12427C35.9073 1.55517 34.3035 1.19301 31.9753 1.08954C29.6472 0.986064 28.8711 0.934326 22.9214 0.934326Z" fill="white"/>
<path d="M22.9215 11.6438C16.6614 11.6438 11.6429 16.714 11.6429 22.9224C11.6429 29.1825 16.7131 34.201 22.9215 34.201C29.1816 34.201 34.2001 29.1308 34.2001 22.9224C34.2001 16.714 29.1816 11.6438 22.9215 11.6438ZM22.9215 30.269C18.8861 30.269 15.5749 27.0096 15.5749 22.9224C15.5749 18.8352 18.8343 15.5758 22.9215 15.5758C27.0087 15.5758 30.2681 18.8352 30.2681 22.9224C30.2681 27.0096 26.957 30.269 22.9215 30.269Z" fill="white"/>
<path d="M34.6654 13.8684C36.1227 13.8684 37.304 12.6871 37.304 11.2299C37.304 9.77264 36.1227 8.59131 34.6654 8.59131C33.2082 8.59131 32.0269 9.77264 32.0269 11.2299C32.0269 12.6871 33.2082 13.8684 34.6654 13.8684Z" fill="white"/>
</svg>
