<svg width="600" height="280" viewBox="0 0 600 280" fill="none" xmlns="http://www.w3.org/2000/svg">
<path d="M179.244 113.004L198.578 108.389V174.882H179.244V113.004ZM202.634 151.593V130.818L217.9 108.4L236.663 110.713L216.067 139.713L239.267 174.893H217.62L202.634 151.593Z" fill="url(#paint0_linear_1516_320)"/>
<path d="M260.29 108.389H261.932L269.565 134.874L258.446 174.882H239.112L260.29 108.389ZM282.037 163.092H268.213L272.27 148.206H277.69L266.28 108.389H283.97L305.137 174.882H285.423L282.037 163.092Z" fill="url(#paint1_linear_1516_320)"/>
<path d="M311.575 113.004L330.908 108.389V174.882H311.575V113.004ZM337.266 151.593V130.818L350.231 108.4L368.994 110.713L348.398 139.713L371.598 174.893H349.95L337.266 151.593Z" fill="url(#paint2_linear_1516_320)"/>
<path d="M392.615 108.389H394.26L401.892 134.874L390.771 174.882H371.438L392.615 108.389ZM414.363 163.092H400.528L404.584 148.206H410.004L398.594 108.389L416.286 113.004L437.45 174.882H417.739L414.363 163.092Z" fill="url(#paint3_linear_1516_320)"/>
<path d="M443.9 113.004L463.234 108.389V174.882H443.9V113.004ZM469.591 160.097H470.364C473.527 160.097 473.438 159.963 474.722 159.706C476.073 159.382 477.068 158.678 477.717 157.583C478.421 156.42 478.813 154.588 478.878 152.073C479.002 148.855 479.068 145.368 479.068 141.635C479.068 137.959 479.002 134.45 478.878 131.097C478.744 128.583 478.332 126.75 477.628 125.588C476.979 124.425 475.918 123.721 474.441 123.464C472.957 123.274 470.831 123.174 468.06 123.174H467.29V108.389H468.06C473.212 108.389 477.504 108.612 480.912 109.07C484.388 109.518 487.259 110.233 489.518 111.194C491.707 112.155 493.451 113.485 494.736 115.161C496.021 116.837 496.961 118.927 497.542 121.441C498.057 123.699 498.38 126.37 498.503 129.465C498.693 132.494 498.792 136.551 498.792 141.647C498.792 146.799 498.693 150.889 498.503 153.917C498.38 156.946 498.057 159.583 497.542 161.84C496.961 164.355 496.034 166.445 494.736 168.121C493.451 169.797 491.707 171.116 489.518 172.088C487.259 173.049 484.388 173.765 480.912 174.212C477.494 174.659 475.526 174.893 470.374 174.893H469.602V160.097H469.591Z" fill="url(#paint4_linear_1516_320)"/>
<path d="M536.646 175.653C529.884 175.653 524.666 175.106 520.988 174.01C517.313 172.915 514.607 171.138 512.875 168.691C511.268 166.433 510.261 163.573 509.88 160.086C509.489 156.611 509.3 151.425 509.3 144.53V113.004L528.633 108.389V148.396C528.633 150.777 528.699 153.068 528.822 155.258C528.956 157.001 529.237 158.253 529.694 159.024C530.141 159.795 530.913 160.276 532.019 160.477C532.981 160.734 534.534 160.868 536.656 160.868H538.882C539.394 160.868 539.975 160.801 540.623 160.678V175.564C540.177 175.631 539.528 175.664 538.69 175.664H536.646V175.653ZM544.669 108.389L564.003 113.004V144.53C564.003 150.844 563.869 155.616 563.611 158.834C563.354 162.053 562.65 164.757 561.488 166.948C560.204 169.462 558.236 171.395 555.588 172.748C552.95 174.1 549.306 174.971 544.669 175.363V108.389Z" fill="url(#paint5_linear_1516_320)"/>
<path d="M37.2627 191.184L63.6254 166.374C63.983 166.039 64.4525 165.86 64.933 165.86H76.276C77.304 165.86 78.1421 166.665 78.1867 167.693C78.3097 170.789 78.7122 173.918 79.3826 177.013C79.5839 177.93 79.0808 178.857 78.2093 179.204L39.2631 194.357C39.0396 194.447 38.8049 194.491 38.5702 194.491C37.9332 194.491 37.3074 194.168 36.9498 193.597C36.4693 192.815 36.5922 191.809 37.2627 191.184Z" fill="url(#paint6_linear_1516_320)"/>
<path d="M72.0631 165.849L43.6329 192.658L39.2745 194.357C39.051 194.446 38.8163 194.491 38.5816 194.491C37.9446 194.491 37.3188 194.167 36.9612 193.597C36.4695 192.826 36.6036 191.809 37.2629 191.183L63.6257 166.374C63.9832 166.039 64.4527 165.86 64.9332 165.86H72.0631V165.849Z" fill="url(#paint7_linear_1516_320)"/>
<path d="M135.146 112.713C137.169 111.272 141.337 109.875 146.612 116.747C147.093 117.373 147.137 118.245 146.713 118.916C146.679 118.971 146.635 119.027 146.601 119.083C145.316 120.938 143.181 122.257 140.231 122.994C138.13 123.52 136.353 123.542 136.286 123.542C136.275 123.542 136.275 123.542 136.264 123.542C135.761 123.542 135.28 123.341 134.923 122.994C134.554 122.637 134.353 122.145 134.353 121.631V114.267C134.342 113.652 134.643 113.071 135.146 112.713Z" fill="#8C6E1A"/>
<path d="M134.645 103.462C133.594 103.496 132.711 102.658 132.689 101.596C132.667 100.546 133.494 99.6628 134.555 99.6404C135.058 99.6293 147.016 99.417 151.229 106.48C153.654 110.559 152.961 115.979 149.161 122.595C148.815 123.187 148.189 123.556 147.507 123.556C147.496 123.556 147.474 123.556 147.463 123.556C146.759 123.545 146.133 123.142 145.809 122.528C144.971 120.907 141.953 116.113 139.204 115.454C138.545 115.297 137.975 115.409 137.372 115.845C136.511 116.459 135.315 116.258 134.701 115.398C134.086 114.537 134.287 113.341 135.148 112.727C135.416 112.537 135.706 112.358 135.986 112.213L134.846 103.462C134.723 103.462 134.656 103.462 134.645 103.462Z" fill="#B29340"/>
<path d="M98.3146 177.305H104.461L100.472 167.739C100.069 166.767 100.527 165.649 101.5 165.236C102.472 164.833 103.589 165.291 104.003 166.264L108.596 177.294H118.374C119.436 177.294 120.285 178.154 120.285 179.205C120.285 180.256 119.425 181.116 118.374 181.116H107.333H107.322H107.311H98.3033C97.2417 181.116 96.3926 180.256 96.3926 179.205C96.4036 178.166 97.253 177.305 98.3146 177.305Z" fill="black"/>
<path d="M112.706 87.0957L125.346 95.6225L107.789 108.698L101.464 103.009H110.594L107.789 95.6225L116.919 98.461L112.706 87.0957Z" fill="url(#paint8_linear_1516_320)"/>
<path d="M70.0051 159.872L76.0844 153.691C76.6319 153.133 77.4702 152.909 78.2076 153.2C79.113 153.557 79.5935 154.518 79.3589 155.446C78.4089 159.234 78.0177 163.347 78.1966 167.672C78.2076 167.918 78.1743 168.164 78.096 168.398C77.8054 169.203 77.079 169.683 76.2856 169.683H70.6979H64.4284H60.126L63.635 166.376L70.0051 159.872Z" fill="url(#paint9_linear_1516_320)"/>
<path d="M67.9953 169.675H60.1055L63.6145 166.367L69.9956 159.863L76.0751 153.683C76.6226 153.124 77.4607 152.9 78.1984 153.191C79.1037 153.549 79.5842 154.51 79.3493 155.437C79.0141 156.767 78.7572 158.142 78.5672 159.55C77.9301 160.097 77.8072 160.567 77.0251 161.148L67.9953 169.675Z" fill="url(#paint10_linear_1516_320)"/>
<path d="M78.1634 147.415C82.6448 137.894 90.8922 130.909 102.682 126.629L107.208 122.025V113.967C107.208 103.541 115.69 95.0586 126.117 95.0586C132.766 95.0586 138.164 100.467 138.164 107.106V135.927C138.164 154.545 123.021 169.676 104.414 169.676H101.207C95.407 174.895 88.2435 180.103 79.7055 184.137C79.4486 184.26 79.1693 184.316 78.8898 184.316C78.6439 184.316 78.398 184.271 78.1634 184.171C77.6716 183.97 77.2806 183.568 77.0907 183.053C76.8112 182.305 70.3184 164.066 78.1634 147.415Z" fill="url(#paint11_linear_1516_320)"/>
<path d="M78.1628 147.415C82.6442 137.894 90.8917 130.909 102.682 126.629L107.208 122.025V113.967C107.208 103.541 115.69 95.0586 126.116 95.0586C127.301 95.0586 128.441 95.2374 129.525 95.5503C121.154 97.4948 114.896 105.005 114.896 113.967V122.025L110.37 126.629C98.5803 130.898 90.3329 137.894 85.8514 147.415C79.1128 161.731 82.9571 177.22 84.354 181.768C82.8565 182.595 81.3143 183.389 79.7162 184.148C79.4593 184.271 79.1798 184.327 78.9005 184.327C78.6546 184.327 78.4087 184.283 78.1741 184.182C77.6823 183.981 77.2911 183.579 77.1012 183.064C76.8106 182.305 70.3178 164.066 78.1628 147.415Z" fill="url(#paint12_linear_1516_320)"/>
<path d="M76.0063 153.143C76.0623 152.965 76.1182 152.775 76.1742 152.596C76.4088 152.641 76.6547 152.685 76.9003 152.73C93.0713 155.759 116.785 148.383 120.261 147.254C116.327 153.289 110.046 161.626 101.24 169.683H101.207C95.4069 174.902 88.2434 180.109 79.7054 184.144C79.4484 184.267 79.1692 184.323 78.8896 184.323C78.6437 184.323 78.3981 184.278 78.1632 184.177C77.6717 183.976 77.2805 183.574 77.0905 183.06C76.8446 182.389 71.7261 167.995 76.0063 153.143Z" fill="url(#paint13_linear_1516_320)"/>
<path d="M74.3523 163.47C95.9652 167.348 109.711 158.966 114.516 155.278C110.996 159.793 106.582 164.789 101.24 169.672H101.195C95.3953 174.891 88.2318 180.099 79.6941 184.133C79.4369 184.256 79.1576 184.312 78.8781 184.312C78.6322 184.312 78.3865 184.267 78.1517 184.167C77.6601 183.965 77.269 183.563 77.079 183.049C76.9001 182.546 73.8828 174.064 74.3523 163.47Z" fill="url(#paint14_linear_1516_320)"/>
<path d="M138.166 136.248C137.384 136.203 136.524 136.103 136.256 136.103C136.121 136.103 135.998 136.091 135.864 136.058C124.443 133.678 116.464 125.385 116.464 115.886C116.464 111.818 117.917 107.874 120.677 104.487C123.292 101.28 126.935 98.721 131.249 97.067C131.83 96.8212 132.501 96.877 133.037 97.2235C133.104 97.2794 133.182 97.3241 133.249 97.3799C133.328 97.4358 133.406 97.4917 133.473 97.5476C133.573 97.6258 133.674 97.704 133.763 97.7823C133.83 97.8381 133.886 97.8828 133.953 97.9387C134.132 98.0952 134.3 98.2516 134.468 98.4081C134.535 98.4751 134.602 98.5422 134.669 98.6092C134.747 98.6875 134.825 98.7657 134.903 98.8551C134.981 98.9333 135.06 99.0227 135.127 99.1009C135.194 99.1792 135.261 99.2462 135.317 99.3245C135.406 99.4362 135.496 99.5368 135.585 99.6485C135.63 99.7044 135.674 99.7603 135.719 99.8162C136.133 100.364 136.513 100.956 136.825 101.571C137.362 102.61 137.753 103.739 137.965 104.901C137.965 104.934 137.976 104.957 137.976 104.99C138.01 105.18 138.044 105.37 138.066 105.56C138.077 105.605 138.077 105.661 138.088 105.706C138.111 105.884 138.122 106.063 138.133 106.242C138.133 106.298 138.144 106.354 138.144 106.41C138.155 106.633 138.166 106.868 138.166 107.091V134.169V135.913C138.178 136.035 138.166 136.136 138.166 136.248Z" fill="url(#paint15_linear_1516_320)"/>
<path d="M120.677 104.499C123.292 101.292 126.935 98.7327 131.249 97.0788C131.83 96.8329 132.501 96.8888 133.037 97.2352C133.104 97.2911 133.182 97.3358 133.249 97.3917C133.328 97.4475 133.406 97.5034 133.473 97.5593C133.573 97.6375 133.674 97.7157 133.763 97.794C133.83 97.8499 133.886 97.8945 133.953 97.9504C134.132 98.1069 134.3 98.2633 134.468 98.4198C134.535 98.4868 134.602 98.5539 134.669 98.621C134.702 98.6545 134.724 98.6768 134.758 98.7104C131.975 100.241 129.573 102.208 127.706 104.499C124.957 107.885 123.493 111.819 123.493 115.898C123.493 124.023 129.338 131.253 138.166 134.673V135.936C138.166 136.047 138.166 136.148 138.166 136.259C137.384 136.215 136.524 136.114 136.256 136.114C136.121 136.114 135.998 136.103 135.864 136.069C124.443 133.689 116.464 125.397 116.464 115.898C116.464 111.819 117.917 107.885 120.677 104.499Z" fill="#BEC1C9"/>
<path d="M127.023 112.279C128.241 112.279 129.236 111.284 129.236 110.077C129.236 108.859 128.241 107.876 127.023 107.876C125.805 107.876 124.811 108.859 124.811 110.077C124.811 111.284 125.805 112.279 127.023 112.279Z" fill="#2B2B2B"/>
<path d="M77.0686 183.006C77.0686 182.995 77.0575 182.984 77.0575 182.962C77.0575 182.95 77.0462 182.939 77.0462 182.928C77.0349 182.917 77.0349 182.895 77.0239 182.872C77.0239 182.861 77.0126 182.839 77.0016 182.816C76.9903 182.794 76.9903 182.783 76.9792 182.761C76.9679 182.738 76.9679 182.716 76.9569 182.694C76.9456 182.671 76.9456 182.66 76.9346 182.638C76.9233 182.604 76.9122 182.582 76.9009 182.548C76.8897 182.526 76.8897 182.515 76.8786 182.492C76.8673 182.459 76.8563 182.425 76.845 182.381C76.845 182.369 76.834 182.358 76.834 182.336C76.767 182.124 76.6887 181.878 76.5991 181.587C76.5991 181.576 76.5994 181.576 76.5881 181.565C76.5657 181.498 76.5434 181.42 76.5211 181.352C76.5211 181.341 76.5098 181.33 76.5098 181.319C76.4874 181.252 76.4651 181.174 76.4428 181.095C76.4428 181.084 76.4315 181.062 76.4315 181.051C76.4091 180.972 76.3868 180.894 76.3645 180.816C76.3645 180.805 76.3535 180.794 76.3535 180.783C75.0236 176.044 72.6431 164.746 75.9846 153.157C76.0406 152.978 76.0963 152.788 76.1522 152.609C76.3868 152.654 76.6327 152.699 76.8786 152.744C79.0019 153.146 81.2594 153.358 83.5839 153.436C80.0972 165.841 83.1145 177.855 84.3214 181.777C83.8745 182.023 83.4273 182.258 82.9805 182.504C82.8352 182.582 82.6899 182.649 82.5446 182.727C82.2091 182.906 81.8739 183.073 81.5276 183.252C81.3824 183.319 81.2371 183.398 81.1028 183.465C80.6336 183.699 80.1641 183.934 79.6836 184.157C79.4267 184.28 79.1472 184.336 78.8679 184.336C78.622 184.336 78.3761 184.292 78.1415 184.191C77.6497 183.99 77.2585 183.588 77.0686 183.073C77.0686 183.062 77.0575 183.051 77.0575 183.029C77.0686 183.018 77.0686 183.006 77.0686 183.006Z" fill="url(#paint16_linear_1516_320)"/>
<path d="M77.0576 182.977C77.0466 182.955 77.0353 182.932 77.0353 182.899C77.0353 182.888 77.024 182.877 77.024 182.865C76.9906 182.776 76.957 182.664 76.9123 182.53C76.9123 182.519 76.9013 182.508 76.9013 182.496C76.8787 182.429 76.8564 182.362 76.8341 182.284C76.8341 182.273 76.8341 182.273 76.823 182.262C76.7671 182.094 76.7001 181.893 76.6331 181.67C76.6331 181.658 76.6218 181.647 76.6218 181.636C76.5212 181.289 76.3982 180.898 76.2753 180.44C76.2753 180.44 76.2753 180.429 76.2753 180.418C76.1526 179.96 76.0183 179.446 75.8843 178.887C75.2473 176.25 74.5655 172.55 74.3643 168.281C74.3643 168.27 74.3643 168.27 74.3643 168.259C74.3196 167.354 74.2973 166.426 74.3086 165.476C74.3086 165.454 74.3086 165.443 74.3086 165.421C74.3086 164.784 74.3309 164.135 74.3532 163.487C77.024 163.968 79.5721 164.258 81.9972 164.392C81.7849 172.383 83.5057 179.043 84.3328 181.781C83.8859 182.027 83.4387 182.262 82.9919 182.508C82.8466 182.586 82.7013 182.653 82.556 182.731C82.2208 182.91 81.8853 183.078 81.539 183.256C81.3938 183.323 81.2485 183.402 81.1142 183.469C80.645 183.704 80.1755 183.938 79.695 184.162C79.4381 184.284 79.1586 184.34 78.8793 184.34C78.6334 184.34 78.3875 184.296 78.1529 184.195C77.6611 183.994 77.2699 183.592 77.08 183.078C77.08 183.067 77.0689 183.044 77.0576 183.011C77.0689 183 77.0576 182.988 77.0576 182.977Z" fill="url(#paint17_linear_1516_320)"/>
<defs>
<linearGradient id="paint0_linear_1516_320" x1="252.983" y1="156.025" x2="506.205" y2="230.445" gradientUnits="userSpaceOnUse">
<stop stop-color="#F8CA00"/>
<stop offset="1" stop-color="#C95C08"/>
</linearGradient>
<linearGradient id="paint1_linear_1516_320" x1="257.559" y1="140.462" x2="510.781" y2="214.882" gradientUnits="userSpaceOnUse">
<stop stop-color="#F8CA00"/>
<stop offset="1" stop-color="#C95C08"/>
</linearGradient>
<linearGradient id="paint2_linear_1516_320" x1="263.507" y1="120.227" x2="516.728" y2="194.647" gradientUnits="userSpaceOnUse">
<stop stop-color="#F8CA00"/>
<stop offset="1" stop-color="#C95C08"/>
</linearGradient>
<linearGradient id="paint3_linear_1516_320" x1="267.453" y1="106.79" x2="520.674" y2="181.211" gradientUnits="userSpaceOnUse">
<stop stop-color="#F8CA00"/>
<stop offset="1" stop-color="#C95C08"/>
</linearGradient>
<linearGradient id="paint4_linear_1516_320" x1="273.511" y1="86.179" x2="526.732" y2="160.599" gradientUnits="userSpaceOnUse">
<stop stop-color="#F8CA00"/>
<stop offset="1" stop-color="#C95C08"/>
</linearGradient>
<linearGradient id="paint5_linear_1516_320" x1="279.389" y1="66.1844" x2="532.611" y2="140.604" gradientUnits="userSpaceOnUse">
<stop stop-color="#F8CA00"/>
<stop offset="1" stop-color="#C95C08"/>
</linearGradient>
<linearGradient id="paint6_linear_1516_320" x1="58.0469" y1="165.852" x2="58.0469" y2="194.486" gradientUnits="userSpaceOnUse">
<stop stop-color="#0D32A4"/>
<stop offset="1" stop-color="#268DEC"/>
</linearGradient>
<linearGradient id="paint7_linear_1516_320" x1="54.3608" y1="165.852" x2="54.3608" y2="194.485" gradientUnits="userSpaceOnUse">
<stop stop-color="#0D32A4"/>
<stop offset="1" stop-color="#268DEC"/>
</linearGradient>
<linearGradient id="paint8_linear_1516_320" x1="113.41" y1="87.0919" x2="113.41" y2="108.696" gradientUnits="userSpaceOnUse">
<stop stop-color="#44AC2C"/>
<stop offset="1" stop-color="#19600D"/>
</linearGradient>
<linearGradient id="paint9_linear_1516_320" x1="69.7595" y1="153.073" x2="69.7595" y2="169.677" gradientUnits="userSpaceOnUse">
<stop stop-color="#0D32A4"/>
<stop offset="1" stop-color="#268DEC"/>
</linearGradient>
<linearGradient id="paint10_linear_1516_320" x1="69.7612" y1="153.075" x2="69.7612" y2="169.68" gradientUnits="userSpaceOnUse">
<stop stop-color="#0D32A4"/>
<stop offset="1" stop-color="#268DEC"/>
</linearGradient>
<linearGradient id="paint11_linear_1516_320" x1="106.236" y1="95.0574" x2="106.236" y2="184.331" gradientUnits="userSpaceOnUse">
<stop stop-color="#DC9207"/>
<stop offset="0.5507" stop-color="#C65308"/>
<stop offset="1" stop-color="#E49708"/>
</linearGradient>
<linearGradient id="paint12_linear_1516_320" x1="123.146" y1="105.066" x2="85.6226" y2="157.94" gradientUnits="userSpaceOnUse">
<stop stop-color="#E6CB3E"/>
<stop offset="1" stop-color="#FED51D"/>
</linearGradient>
<linearGradient id="paint13_linear_1516_320" x1="97.2824" y1="147.25" x2="97.2824" y2="184.327" gradientUnits="userSpaceOnUse">
<stop stop-color="#0D32A4"/>
<stop offset="1" stop-color="#268DEC"/>
</linearGradient>
<linearGradient id="paint14_linear_1516_320" x1="94.4125" y1="155.281" x2="94.4125" y2="184.327" gradientUnits="userSpaceOnUse">
<stop stop-color="#0D32A4"/>
<stop offset="1" stop-color="#268DEC"/>
</linearGradient>
<linearGradient id="paint15_linear_1516_320" x1="127.318" y1="96.9263" x2="127.318" y2="136.247" gradientUnits="userSpaceOnUse">
<stop stop-color="#D8DBE2"/>
<stop offset="1" stop-color="#CED1D9"/>
</linearGradient>
<linearGradient id="paint16_linear_1516_320" x1="79.3221" y1="152.599" x2="79.3221" y2="184.329" gradientUnits="userSpaceOnUse">
<stop stop-color="#0D32A4"/>
<stop offset="1" stop-color="#268DEC"/>
</linearGradient>
<linearGradient id="paint17_linear_1516_320" x1="79.3225" y1="163.468" x2="79.3225" y2="184.322" gradientUnits="userSpaceOnUse">
<stop stop-color="#0D32A4"/>
<stop offset="1" stop-color="#268DEC"/>
</linearGradient>
</defs>
</svg>
