<svg width="350" height="85" viewBox="0 0 350 85" fill="none" xmlns="http://www.w3.org/2000/svg">
<g clip-path="url(#clip0_2737_519)">
<path fill-rule="evenodd" clip-rule="evenodd" d="M42.4242 0.0339966C19.0061 0.0339966 0.0339394 19.04 0.0339394 42.5C0.0339394 65.96 19.0061 84.983 42.4242 84.983C65.8424 84.983 84.8145 65.96 84.8145 42.5C84.8145 19.04 65.8424 0.0339966 42.4242 0.0339966ZM20.5164 34.391C18.2255 34.391 16.3758 32.538 16.3758 30.243C16.3758 27.948 18.2255 26.095 20.5164 26.095C22.8073 26.095 24.657 27.948 24.657 30.243C24.657 32.538 22.8073 34.391 20.5164 34.391ZM55.6436 43.282C54.7952 43.996 45.9709 51.391 45.9709 51.391C45.9709 51.391 45.9709 61.302 45.9709 62.067C45.9709 63.376 44.9697 65.62 42.4242 65.62C39.8788 65.62 38.8776 63.393 38.8776 62.067C38.8776 60.741 38.8776 51.391 38.8776 51.391C38.8776 51.391 30.0024 43.945 29.2049 43.282C28.7636 42.908 27.6267 42.041 27.6267 40.715C27.6267 39.389 28.5261 38.148 30.1891 38.148C30.9527 38.148 53.2339 38.148 54.6594 38.148C56.2376 38.148 57.2218 39.423 57.2218 40.715C57.2218 42.024 56.1527 42.857 55.6436 43.282ZM64.3152 34.391C62.0242 34.391 60.1745 32.538 60.1745 30.243C60.1745 27.948 62.0242 26.095 64.3152 26.095C66.6061 26.095 68.4558 27.948 68.4558 30.243C68.4558 32.538 66.6061 34.391 64.3152 34.391Z" fill="#DB4439"/>
<path fill-rule="evenodd" clip-rule="evenodd" d="M131.939 26.01H104.109C102.735 26.01 102.327 26.673 102.327 27.761V32.759C102.327 33.847 102.65 34.527 104.024 34.527H113.273V63.852C113.273 65.229 113.884 65.637 114.97 65.637H121.079C122.165 65.637 122.776 65.314 122.776 63.937V34.51H131.939C133.314 34.51 133.636 33.898 133.636 32.81V27.795C133.636 26.707 133.314 26.01 131.939 26.01ZM175.552 57.205H156.376V49.215H172.497C173.872 49.215 174.279 48.603 174.279 47.515V42.755C174.279 41.667 173.888 41.055 172.514 41.055H156.376V34.51H174.533C175.908 34.51 176.315 33.898 176.315 32.81V27.71C176.315 26.622 175.908 26.01 174.533 26.01H148.655C147.28 26.01 146.941 26.673 146.941 27.761L146.958 63.835C146.958 64.923 147.28 65.62 148.655 65.62H175.552C176.926 65.62 177.333 65.008 177.333 63.92V58.905C177.333 57.817 176.926 57.205 175.552 57.205ZM204.57 26.01H190.994C189.619 26.01 189.297 26.707 189.297 27.795V63.835C189.297 64.923 189.704 65.62 191.079 65.62H204.485C211.629 65.62 220.606 61.54 220.606 52.105V39.525C220.606 30.141 211.714 26.01 204.57 26.01ZM211.273 51.17C211.273 55.012 208.439 57.205 204.485 57.205H198.715V34.34H204.485C208.439 34.34 211.273 36.584 211.273 40.375V51.17ZM261.096 45.084C261.639 44.846 265.491 42.891 265.491 36.805C265.491 31.144 261.198 25.925 251.406 25.925H234.691C233.316 25.925 232.909 26.537 232.909 27.625V63.835C232.909 64.923 233.316 65.62 234.691 65.62H252.424C260.773 65.62 266.611 61.676 266.611 54.043C266.611 47.549 261.571 45.254 261.096 45.084ZM242.327 34.425L251.491 34.442C254.613 34.442 256.497 35.122 256.497 37.825C256.497 40.171 255.139 41.395 251.661 41.395H251.321H242.327V34.425ZM252.424 57.035H242.327V49.47H252.085C254.97 49.47 257.091 50.303 257.091 53.125C257.091 55.828 255.36 57.035 252.424 57.035ZM306.558 57.205H287.382V49.215H303.503C304.878 49.215 305.2 48.569 305.2 47.481V42.789C305.2 41.701 304.844 41.038 303.452 41.038H287.365V34.51H305.522C306.897 34.51 307.236 33.83 307.236 32.742V27.744C307.236 26.656 306.914 25.993 305.522 25.993H279.661C278.286 25.993 277.879 26.69 277.879 27.778V63.818C277.879 64.906 278.286 65.603 279.661 65.603L306.558 65.518C307.932 65.518 308.255 64.991 308.255 63.903V58.888C308.255 57.817 307.932 57.205 306.558 57.205ZM348.218 26.01H320.388C319.013 26.01 318.691 26.622 318.691 27.71V32.81C318.691 33.898 319.013 34.51 320.388 34.51H329.636V63.75C329.636 65.127 330.247 65.62 331.333 65.62H337.358C338.444 65.62 339.055 65.212 339.055 63.835V34.425H348.218C349.593 34.425 350 33.898 350 32.81V27.795C350 26.707 349.593 26.01 348.218 26.01Z" fill="white"/>
</g>
<defs>
<clipPath id="clip0_2737_519">
<rect width="350" height="85" fill="white"/>
</clipPath>
</defs>
</svg>
