<svg width="38" height="32" viewBox="0 0 38 32" fill="none" xmlns="http://www.w3.org/2000/svg">
<path d="M37.7167 0.850183C37.5615 0.43629 37.4063 0.332829 37.1993 0.281093C36.6302 0.0741464 35.7507 0.384604 35.7507 0.384604C35.7507 0.384604 3.10489 12.1288 1.24237 13.4222C0.828475 13.6809 0.724995 13.8878 0.621522 14.043C0.311103 14.9743 1.29409 15.3882 1.29409 15.3882L9.72717 18.1302C9.72717 18.1302 10.0376 18.182 10.1411 18.1302C12.0553 16.9403 29.3871 5.97214 30.3701 5.60999C30.5253 5.55825 30.6288 5.60996 30.6288 5.71344C30.2149 7.11032 15.1595 20.5101 15.1595 20.5101C15.1595 20.5101 15.1078 20.5619 15.056 20.6653L14.28 28.9949C14.28 28.9949 13.9696 31.53 16.5047 28.9949C18.3154 27.1841 20.0745 25.6838 20.9023 24.9595C23.7995 26.9772 26.9037 29.1501 28.2489 30.34C28.9214 30.9092 29.4906 31.0126 29.9562 31.0126C31.2496 30.9609 31.6117 29.564 31.6117 29.564C31.6117 29.564 37.5615 5.60995 37.7684 2.40228C37.7684 2.09186 37.8201 1.88497 37.8201 1.67802C37.7684 1.31586 37.7684 1.00539 37.7167 0.850183Z" fill="white"/>
</svg>
