<svg width="48" height="34" viewBox="0 0 48 34" fill="none" xmlns="http://www.w3.org/2000/svg">
<path d="M46.1065 5.69541C45.5891 3.67768 43.9853 2.12558 41.9676 1.55648C38.346 0.573483 23.7563 0.573486 23.7563 0.573486C23.7563 0.573486 9.21833 0.573483 5.54503 1.55648C3.5273 2.07384 1.97521 3.67768 1.4061 5.69541C0.423108 9.31697 0.423096 16.9223 0.423096 16.9223C0.423096 16.9223 0.423108 24.4758 1.4061 28.1491C1.92347 30.1668 3.5273 31.7189 5.54503 32.288C9.16659 33.271 23.7563 33.271 23.7563 33.271C23.7563 33.271 38.2943 33.271 41.9676 32.288C43.9853 31.7707 45.5374 30.1668 46.1065 28.1491C47.0895 24.5275 47.0895 16.9223 47.0895 16.9223C47.0895 16.9223 47.0895 9.31697 46.1065 5.69541ZM19.1518 23.9067V9.93781L31.2581 16.9223L19.1518 23.9067Z" fill="white"/>
</svg>
